<?xml version="1.0" encoding="UTF-8"?><svg id="Layer_2" xmlns="http://www.w3.org/2000/svg" viewBox="0 0 708.88 813.61"><defs><style>.cls-1{fill:#34d399;}</style></defs><g id="Layer_1-2"><path class="cls-1" d="M487.8,645.13l1.19,17.84,6.96,29.04,9.38,50.97c1.6,8.7-1.35,16.38-9.88,17.78s-13.61-5.02-14.73-13.75l-6.98-54.11-5.74-29.92-12.51-78.52-143.44,32.94c-17.29,3.97-41.06-1.94-44.65-22.19l-35.72-201.56c-2.71-15.27,7.59-32.03,22.18-35.21,23.1-5.03,45.01-7.96,68.26-11.86l103.71-17.38c-2-6.28-2.9-14.23-.25-18.9,2.25-3.98,11.33-7.19,16.2-5.12,5.6,2.39,8.36,9.19,9.95,18.68l104.33-26.36c3.94-1.33,9.22-1.81,12.5-3.04,4.42-1.65,8.54-6.49,12.83-4.34l50.15-9.29c13.51-2.5,36.25,3.53,39.94,19.9,15.6,69.31,27.17,138.2,37.22,208.78,1.92,13.48-12.65,24.18-23.41,26.27l-93.53,18.18c-.69-.1-11.77,5.98-22.42,4.9l-90.25,20.63,8.7,65.62ZM287.83,584.81c1.51,8.27,6.73,13.63,14.9,11.77l135.66-30.95,156.52-35.18,92.69-17.39-36.34-205.82c-7.59-6.28-19.39-5.73-29.09-3.29l-137.12,34.44c-54.27,13.63-107.39,22.73-162.58,31.07l-61.36,9.27c-8.31,1.25-9.05,9.54-7.84,16.21l34.57,189.88Z"/><path class="cls-1" d="M122.21,759.81l6.41,32.32c.63,3.15-1.06,9.32-3.46,11.27s-8.43,2.22-11.94,1.3l-52.91-13.9c-12.52-3.29-39.4,5.75-39.06-10.62.17-8.22,6.53-10.9,14.45-10.82,15.92.18,31.12.55,45.86,4.62l27.84,7.68-13.59-40.25c-1.78-5.26-1.83-10,2.45-13.27,5.28-4.03,9.51,1.3,14.2,3.37,13.69,6.04,27.57,12.46,31.32,27.35,4.91-3.85,8.84-6.55,13.21-8.28,15.85,9.77,30.41,24.68,41.01,39.82.05,3.71-5.21,9.38-8.37,9.52-4.21.19-9.68-3.11-12.64-6.69l-11.16-13.55-8.65,9.15c-5.12,5.41-15.38-21.45-32.66-31.74l-2.31,2.72ZM119.93,756.82l3.57-.29-3.57.29Z"/><path class="cls-1" d="M476.26,811.68l-70.7.92c-4.64.06-12.18-6.06-11.57-10.35l8.45-58.56c3.65-25.28-5.69-46.57,8.9-49.63,29.85-6.26,45.19-21.91,50.98-7.14,1.53,3.91-1.3,13.24-5.83,14.99l-29.82,11.49c-.87,25.04-3.86,48.92-8.59,76.22l53.34-.32c4.36-.03,10.03,4.17,11.51,7.38,1.82,3.96-1.01,14.93-6.66,15Z"/><path class="cls-1" d="M314.23,811.69l-75.57-.48c-3.42-.02-6.79-9.07-5.58-12.23,1.5-3.9,7.54-9.33,12.27-9.37l54.96-.43-8.39-58.99c-1.39-9.75-.92-17.05,8.88-22.08,8.41-12.55,22.58-1.64,54.9-6.36,5.26-.77,12.03,4.84,12.7,9.96.54,4.16-6.34,12.31-10.7,12.34l-44.32.31,10.75,75.79c.65,4.59-3.86,11.6-9.9,11.56Z"/><path class="cls-1" d="M678.99,790.64c3.82.3,7.14,8.26,6.02,11.55-1.51,4.44-7.23,7.45-12.3,7.11-25.82-1.72-48.3-1.21-73.56,4.17-3.35.71-11.23-1.46-13.16-4.08-4.87-6.6-.83-24.29,7.54-26.32,7.23-1.75,12.66,1.36,15.22,7.27,16.72-2.19,33.54-2.61,50.41-1.27l19.83,1.57Z"/><path class="cls-1" d="M615.47,765.05c-26.73,7.45-54.05,23.64-72.86,44.21-2.22,2.43-10.08.83-11.99-1.68-2.45-3.22-2.05-10.61,1.01-14.25,19.78-23.52,46.24-36.33,75.5-45.85,4.7-1.53,12.16-.39,14.28,3.32,2.7,4.71-.4,12.7-5.95,14.25Z"/><path class="cls-1" d="M147.32,661.42l-27.36-21.34-16.69-13.94c-3.13-2.61.2-12.82,3.8-14.66,4.76-2.42,11.42-.99,15.44,2.79l19.32,18.15,14.03,8.32c5.3,3.15,8.2,9.58,6.22,14.47-1.75,4.31-10.91,9.22-14.77,6.21Z"/><path class="cls-1" d="M49.72,228.77c-16.28,32.3-12.36,48.48-26.58,48.62-5.46.06-12.06-7.5-10.15-13.65,7.7-24.75,16.95-57.5,31.77-49.76,4.45,2.32,7.38,9.97,4.95,14.79Z"/><path class="cls-1" d="M27.46,435.35c7.23,33.22,19.92,50.31,6.67,55.88-3.83,1.61-13.34-1.2-14.76-5.68l-13.4-42.54c-1.51-4.8,2.25-13.06,6.35-14.83,5.5-2.38,13.76.85,15.14,7.18Z"/><path class="cls-1" d="M246.69,712.47l-40.18-17.68c-3.27-1.44-8.46-5.31-9.18-8.2s1.9-8.92,4.56-11.8c6.05-6.54,20.97,7.96,50.28,15.68,7.39,1.95,11.07,6.91,9.81,14.39-.86,5.14-9.31,10.24-15.29,7.61Z"/><path class="cls-1" d="M82.26,170.81c-2.8,4.83-7.79,8.18-12.83,7.38-4.67-.75-11.06-10-8.32-14.53,8.91-14.72,16.83-26.31,27.2-40.03,2.19-2.9,10.37-3.63,13.66-2.18,4.26,1.87,6.99,11.6,4.01,15.44-9.09,11.69-16.39,21.25-23.73,33.92Z"/><path class="cls-1" d="M368.43,29.37c-16.58-4.08-28.93-6.71-45.41-8.42-3.26-.34-7.31-6.29-7.65-9.69-1.78-17.93,27.56-10.61,54.64-4.19,3.62.86,8.01,7.53,8.62,11,.75,4.32-5,12.58-10.2,11.3Z"/><path class="cls-1" d="M266.32,23.21c-30.93,5.17-44.49,19.09-51.47,7.51-2.86-4.74-.85-14.09,5.4-16.57,24.25-9.6,54.35-20.52,55.4-2.44.24,4.23-4.58,10.7-9.32,11.49Z"/><path class="cls-1" d="M501.42,100.85c15.05,18.43,35.98,46.61,22.92,54.28-3.96,2.33-11.45-.48-14.67-5.42-7.98-12.25-16.37-24.29-25.62-35.91-2.01-2.52.85-9.72,3.11-11.88,2.59-2.47,11.76-4.13,14.26-1.08Z"/><path class="cls-1" d="M142.74,93.04c-2.41,2.4-9.57.54-11.56-1.28-2.33-2.12-5.68-10.11-3.35-12.67,15.7-17.18,37.89-42.08,49.24-33.52,3.15,2.38,4.07,12.56.96,15.13-12.34,10.21-23.52,20.63-35.29,32.33Z"/><path class="cls-1" d="M558.3,240.48c1.21,4.19-2.99,12.04-6.4,13.4s-12.69-.39-13.65-3.96l-11.87-44.07c-1.26-4.68,2.15-11.08,6.23-12.8,3.75-1.58,12.57,1.9,13.88,6.43l11.81,40.99Z"/><path class="cls-1" d="M22.15,371.66c-.19,8.36-1.94,13.05-8.23,15.07-4.31,1.38-14.11-3.76-13.92-9.72.53-16.8.9-32.1,3.24-48.44.87-6.04,19.05-3.75,19.87,1.61l-.96,41.49Z"/><path class="cls-1" d="M573.69,604.72c-11.23,20.54-29.85,47.72-39.79,34.62s6.56-16.26,20.83-44.49c1.37-2.71,7.08-7.41,10.07-7.01,6.06.82,11.98,11.23,8.89,16.88Z"/><path class="cls-1" d="M79.74,566.33c3.12,2.99,4.76,8.41,3.14,11.92-7.76,16.87-26.63-10.66-39.51-30.84-2.98-4.67-3.68-12.04-.82-16.13,3.41-4.88,14.53-5.65,17.26-.57l10.52,19.58c3.16,5.87,4.44,11.27,9.41,16.04Z"/><path class="cls-1" d="M458.9,74.61c-10.07,5.92-22.5-1.82-33.28-11.81l-11.28-10.46c.88-5.43,11.66-14.55,18-11.93,11.33,4.69,23.64,14.33,32.03,22.55.39,3.78-2.72,10.04-5.47,11.65Z"/><path class="cls-1" d="M495.95,692.02l-6.96-29.04-1.19-17.84,10.76,8.06c2.76,1.58,8.54-4.2,11.57-6.44,6.77,2.31,9.4,12.91,4.64,17.67-4.9,4.9-9.43,9.39-12.56,15.16l-6.25,12.44Z"/><path class="cls-1" d="M473.74,692.91c-4.45-3.76-9.19-9.52-10.54-14.33-1.63-5.8.14-12.5,4.81-15.59l5.74,29.92Z"/><path class="cls-1" d="M531.92,455.23l-1-4.28-10.01-45.94c-.25-1.69.14-4.99.5-6.59.46-2.01,9.07-3.74,9.61-1.75l7.91,29.01c5.34-4.03,13.49-9.47,20.47-9.72,6.88-.24,15.67,4.72,20.53,10.21,9.44,10.65,11.06,25.03,3.47,36.31-7.02,10.42-20.49,15.21-33.16,11.29l-9.18,4.66c-2,1.02-4.79-5.37-5.33-7.56l-3.83-15.63ZM549.7,459.58c6.55,4.77,15.84,3.26,20.42-.91,3.53-3.21,5.36-11.43,4.23-17.18-1.79-9.09-8.77-12.56-17.2-12.2-5.78.25-11.77,5.07-13.67,11.9-1.31,4.68,1,14.58,6.22,18.38Z"/><path class="cls-1" d="M401.5,504l-7.44-29.05c-1.33-5.2-11.3-7.63-16.07-5.67-4.5,1.85-9.47,8.74-8.36,14.1l6.22,29.97-6.71,4.63c-1.59,1.1-4.8-2.5-6.3-4.45l-16.82-72.79,6.73-5.55c1.83-1.51,6.37,3.77,6.98,6.26l5.45,22.41c7.59-5.54,17.35-7.9,24.62-6.87,6.15.87,15.21,7.13,17.05,14.56l8.02,32.51-6.49,5.42c-1.58,1.32-6.33-3.34-6.87-5.48Z"/><path class="cls-1" d="M516.54,448.98l5.52,22.89c.89,3.69,1.75,9.31-.55,11.24-1.88,1.58-7.47.08-10.14-1.93-6.17,5.41-15.36,9.75-24.77,8.19-6.12-1.01-15.48-8-17.39-16.13l-6.84-29.11c-.53-2.27,4.08-7.16,6.13-7.13s6.02,3.37,6.5,5.54l4.92,22.24c1.65,7.45,6.34,13.23,13.3,13.13,5.2-.07,14.07-7.68,12.91-13.19l-5.51-26.13c-.62-2.95,1.66-8.25,4.57-9.33,2.38-.88,7.8,3.76,8.37,6.3l2.98,13.4Z"/><path class="cls-1" d="M345.04,521.08c-15.94,14.55-41.64,3.59-38.31-1.07l5.25-7.34,14.8,4.23c3.63,1.04,9.83-4.36,11.28-10.2l-20.08-3.1c-7.52-1.16-13.98-4.49-16.16-12.3-1.48-5.31,2.32-13.72,8.74-17.57,7.65-4.59,20.29-4.3,28.56-.37,1.86.88,2.29,7,.73,8.23-8,6.35-23.02-7.11-26.85,8.78l22.78,2.6c5.28.6,12.12,5.83,13.73,10.12,2.11,5.65.72,13.23-4.46,17.97Z"/><path class="cls-1" d="M606.69,436.25c-4.04-24.97,14.66-20.1,13.91-34.86-.29-5.67-5.2-10.47-10.93-10.82-13.44-.82-13.08,12.58-18.17,14.44-1.74.63-6.78-.59-7.38-2.34-3.46-10.19,8.83-24.22,23.41-25.12,11.22-.7,19.85,5.89,23.59,15.06,4.41,10.81,1.98,21.35-7.76,29.91-9.27,8.15.33,16.03-6.92,18.75-3.18,1.19-9.27-2.07-9.74-5.01Z"/><path class="cls-1" d="M438.59,495.86c.54,2.7-2.51,7.56-4.76,7.88s-7.6-3.06-8.08-5.45l-9.28-46.24c-.65-3.24,9.54-3.25,12.51-3.24,6-2.87,18.86-7.48,24.67-4.29,2.04,1.12,1.97,8.39.32,9.63s-4.51,1.78-8.21,1.37c-5.97-.67-14.01,6.02-12.64,12.91l5.47,27.42Z"/><path class="cls-1" d="M615.68,446.66c2.76-1.37,8.99,2.15,9.93,4.61,1.2,3.15-.58,9.18-3.6,10.08s-8.86.21-10.56-1.83c-2.17-2.61.15-10.83,4.24-12.85Z"/></g></svg>