<?xml version="1.0" encoding="UTF-8"?><svg id="Layer_2" xmlns="http://www.w3.org/2000/svg" viewBox="0 0 1006.9 383.02"><defs><style>.cls-1{fill:#102f2c;}.cls-2{fill:#34d399;}</style></defs><g id="Layer_1-2"><path class="cls-1" d="M213.81,294.79l.52,7.82,3.05,12.73,4.11,22.34c.7,3.81-.59,7.18-4.33,7.79s-5.96-2.2-6.46-6.03l-3.06-23.71-2.51-13.11-5.48-34.42-62.87,14.44c-7.58,1.74-18-.85-19.57-9.73l-15.66-88.35c-1.19-6.69,3.33-14.04,9.72-15.43,10.12-2.21,19.73-3.49,29.92-5.2l45.46-7.62c-.88-2.75-1.27-6.24-.11-8.29.99-1.74,4.97-3.15,7.1-2.24,2.46,1.05,3.66,4.03,4.36,8.19l45.73-11.55c1.73-.58,4.04-.79,5.48-1.33,1.94-.72,3.74-2.84,5.62-1.9l21.98-4.07c5.92-1.1,15.89,1.55,17.5,8.72,6.84,30.38,11.91,60.57,16.31,91.51.84,5.91-5.55,10.6-10.26,11.52l-41,7.97c-.3-.04-5.16,2.62-9.83,2.15l-39.56,9.04,3.81,28.76ZM126.16,268.35c.66,3.62,2.95,5.98,6.53,5.16l59.46-13.56,68.6-15.42,40.63-7.62-15.93-90.21c-3.33-2.75-8.5-2.51-12.75-1.44l-60.1,15.1c-23.79,5.98-47.07,9.96-71.26,13.62l-26.89,4.06c-3.64.55-3.97,4.18-3.44,7.1l15.15,83.22Z"/><path class="cls-2" d="M53.57,345.06l2.81,14.17c.27,1.38-.46,4.09-1.52,4.94s-3.69.97-5.23.57l-23.19-6.09c-5.49-1.44-17.27,2.52-17.12-4.65.08-3.6,2.86-4.78,6.33-4.74,6.98.08,13.64.24,20.1,2.02l12.2,3.37-5.96-17.64c-.78-2.31-.8-4.38,1.08-5.82,2.31-1.76,4.17.57,6.22,1.48,6,2.65,12.08,5.46,13.73,11.99,2.15-1.69,3.87-2.87,5.79-3.63,6.95,4.28,13.33,10.82,17.97,17.45.02,1.63-2.28,4.11-3.67,4.17-1.85.08-4.24-1.36-5.54-2.93l-4.89-5.94-3.79,4.01c-2.24,2.37-6.74-9.4-14.32-13.91l-1.01,1.19ZM52.57,343.75l1.56-.13-1.56.13Z"/><path class="cls-1" d="M208.75,367.79l-30.99.4c-2.03.03-5.34-2.66-5.07-4.54l3.7-25.67c1.6-11.08-2.49-20.41,3.9-21.75,13.08-2.74,19.81-9.6,22.34-3.13.67,1.71-.57,5.8-2.56,6.57l-13.07,5.04c-.38,10.97-1.69,21.44-3.76,33.41l23.38-.14c1.91-.01,4.4,1.83,5.04,3.23.8,1.74-.44,6.54-2.92,6.57Z"/><path class="cls-1" d="M137.73,367.79l-33.12-.21c-1.5,0-2.98-3.98-2.44-5.36.66-1.71,3.3-4.09,5.38-4.11l24.09-.19-3.68-25.86c-.61-4.27-.4-7.47,3.89-9.68,3.69-5.5,9.9-.72,24.06-2.79,2.31-.34,5.27,2.12,5.56,4.36.24,1.82-2.78,5.39-4.69,5.41l-19.43.14,4.71,33.22c.29,2.01-1.69,5.08-4.34,5.07Z"/><path class="cls-2" d="M297.61,358.57c1.68.13,3.13,3.62,2.64,5.06-.66,1.95-3.17,3.27-5.39,3.12-11.31-.76-21.17-.53-32.24,1.83-1.47.31-4.92-.64-5.77-1.79-2.13-2.89-.37-10.65,3.31-11.54,3.17-.77,5.55.6,6.67,3.19,7.33-.96,14.7-1.14,22.09-.56l8.69.69Z"/><path class="cls-2" d="M269.77,347.35c-11.72,3.27-23.69,10.36-31.93,19.38-.97,1.06-4.42.37-5.26-.74-1.07-1.41-.9-4.65.44-6.25,8.67-10.31,20.27-15.92,33.09-20.1,2.06-.67,5.33-.17,6.26,1.45,1.18,2.06-.18,5.57-2.61,6.24Z"/><path class="cls-2" d="M64.57,301.93l-11.99-9.35-7.32-6.11c-1.37-1.15.09-5.62,1.67-6.43,2.08-1.06,5-.43,6.77,1.22l8.47,7.95,6.15,3.65c2.32,1.38,3.59,4.2,2.73,6.34-.77,1.89-4.78,4.04-6.47,2.72Z"/><path class="cls-2" d="M21.79,112.3c-7.13,14.16-5.42,21.25-11.65,21.31-2.39.02-5.29-3.29-4.45-5.98,3.38-10.85,7.43-25.2,13.93-21.81,1.95,1.02,3.24,4.37,2.17,6.48Z"/><path class="cls-2" d="M12.04,202.84c3.17,14.56,8.73,22.05,2.92,24.49-1.68.71-5.85-.52-6.47-2.49l-5.87-18.65c-.66-2.1.98-5.72,2.78-6.5,2.41-1.04,6.03.37,6.64,3.15Z"/><path class="cls-2" d="M108.13,324.3l-17.61-7.75c-1.43-.63-3.71-2.33-4.03-3.6s.83-3.91,2-5.17c2.65-2.87,9.19,3.49,22.04,6.87,3.24.85,4.85,3.03,4.3,6.31-.38,2.25-4.08,4.49-6.7,3.34Z"/><path class="cls-2" d="M36.05,86.89c-1.23,2.12-3.42,3.59-5.62,3.23-2.05-.33-4.85-4.38-3.65-6.37,3.91-6.45,7.38-11.53,11.92-17.55.96-1.27,4.55-1.59,5.99-.96,1.87.82,3.07,5.08,1.76,6.77-3.99,5.13-7.18,9.32-10.4,14.87Z"/><path class="cls-2" d="M161.49,24.9c-7.27-1.79-12.68-2.94-19.9-3.69-1.43-.15-3.2-2.76-3.35-4.25-.78-7.86,12.08-4.65,23.95-1.84,1.59.38,3.51,3.3,3.78,4.82.33,1.89-2.19,5.51-4.47,4.95Z"/><path class="cls-2" d="M116.73,22.2c-13.56,2.26-19.5,8.37-22.56,3.29-1.25-2.08-.37-6.18,2.37-7.26,10.63-4.21,23.82-8.99,24.28-1.07.11,1.85-2.01,4.69-4.09,5.04Z"/><path class="cls-2" d="M219.78,56.23c6.6,8.08,15.77,20.43,10.05,23.79-1.74,1.02-5.02-.21-6.43-2.37-3.5-5.37-7.17-10.64-11.23-15.74-.88-1.11.37-4.26,1.36-5.21,1.13-1.08,5.16-1.81,6.25-.47Z"/><path class="cls-2" d="M62.56,52.81c-1.06,1.05-4.2.24-5.07-.56-1.02-.93-2.49-4.43-1.47-5.55,6.88-7.53,16.61-18.44,21.58-14.69,1.38,1.04,1.78,5.51.42,6.63-5.41,4.47-10.31,9.04-15.47,14.17Z"/><path class="cls-2" d="M244.71,117.43c.53,1.84-1.31,5.28-2.8,5.88s-5.56-.17-5.98-1.73l-5.2-19.31c-.55-2.05.94-4.86,2.73-5.61,1.64-.69,5.51.83,6.08,2.82l5.18,17.97Z"/><path class="cls-2" d="M9.71,174.93c-.08,3.66-.85,5.72-3.61,6.6-1.89.61-6.18-1.65-6.1-4.26.23-7.36.39-14.07,1.42-21.23.38-2.65,8.35-1.64,8.71.71l-.42,18.18Z"/><path class="cls-2" d="M251.45,277.08c-4.92,9-13.08,20.91-17.44,15.18s2.87-7.12,9.13-19.5c.6-1.19,3.11-3.25,4.42-3.07,2.66.36,5.25,4.92,3.9,7.4Z"/><path class="cls-2" d="M34.95,260.25c1.37,1.31,2.09,3.69,1.38,5.23-3.4,7.39-11.67-4.67-17.32-13.52-1.3-2.04-1.61-5.28-.36-7.07,1.49-2.14,6.37-2.48,7.56-.25l4.61,8.58c1.38,2.57,1.95,4.94,4.13,7.03Z"/><path class="cls-2" d="M201.14,44.73c-4.41,2.59-9.86-.8-14.59-5.18l-4.95-4.58c.38-2.38,5.11-6.38,7.89-5.23,4.97,2.05,10.36,6.28,14.04,9.88.17,1.66-1.19,4.4-2.4,5.11Z"/><path class="cls-2" d="M217.38,315.34l-3.05-12.73-.52-7.82,4.72,3.53c1.21.69,3.75-1.84,5.07-2.82,2.97,1.01,4.12,5.66,2.03,7.75s-4.13,4.11-5.51,6.64l-2.74,5.45Z"/><path class="cls-2" d="M207.64,315.73c-1.95-1.65-4.03-4.17-4.62-6.28-.72-2.54.06-5.48,2.11-6.84l2.51,13.11Z"/><path class="cls-1" d="M233.14,211.56l-.44-1.88-4.39-20.14c-.11-.74.06-2.19.22-2.89.2-.88,3.97-1.64,4.21-.77l3.47,12.72c2.34-1.77,5.91-4.15,8.97-4.26s6.87,2.07,9,4.47c4.14,4.67,4.85,10.97,1.52,15.91-3.08,4.57-8.98,6.67-14.53,4.95l-4.02,2.04c-.88.45-2.1-2.35-2.34-3.31l-1.68-6.85ZM240.94,213.46c2.87,2.09,6.94,1.43,8.95-.4,1.55-1.41,2.35-5.01,1.85-7.53-.79-3.98-3.85-5.51-7.54-5.35-2.53.11-5.16,2.22-5.99,5.22-.57,2.05.44,6.39,2.73,8.06Z"/><path class="cls-1" d="M175.98,232.93l-3.26-12.73c-.58-2.28-4.95-3.35-7.04-2.49-1.97.81-4.15,3.83-3.66,6.18l2.73,13.13-2.94,2.03c-.7.48-2.11-1.1-2.76-1.95l-7.37-31.9,2.95-2.43c.8-.66,2.79,1.65,3.06,2.74l2.39,9.82c3.33-2.43,7.6-3.46,10.79-3.01,2.69.38,6.67,3.13,7.47,6.38l3.51,14.25-2.84,2.38c-.69.58-2.77-1.47-3.01-2.4Z"/><path class="cls-1" d="M226.4,208.82l2.42,10.03c.39,1.62.77,4.08-.24,4.93-.83.69-3.27.04-4.44-.84-2.71,2.37-6.73,4.28-10.86,3.59-2.68-.44-6.78-3.51-7.62-7.07l-3-12.76c-.23-1,1.79-3.14,2.68-3.12s2.64,1.47,2.85,2.43l2.16,9.75c.72,3.26,2.78,5.8,5.83,5.76,2.28-.03,6.17-3.37,5.66-5.78l-2.42-11.45c-.27-1.3.73-3.62,2-4.09,1.04-.39,3.42,1.65,3.67,2.76l1.31,5.87Z"/><path class="cls-1" d="M151.23,240.42c-6.99,6.38-18.25,1.57-16.79-.47l2.3-3.22,6.49,1.86c1.59.45,4.31-1.91,4.94-4.47l-8.8-1.36c-3.3-.51-6.13-1.97-7.08-5.39-.65-2.33,1.02-6.01,3.83-7.7,3.35-2.01,8.89-1.88,12.52-.16.82.39,1,3.07.32,3.61-3.51,2.78-10.09-3.12-11.77,3.85l9.98,1.14c2.31.26,5.31,2.56,6.02,4.43.93,2.48.32,5.8-1.96,7.88Z"/><path class="cls-1" d="M265.91,203.24c-1.77-10.94,6.42-8.81,6.09-15.28-.13-2.49-2.28-4.59-4.79-4.74-5.89-.36-5.73,5.51-7.96,6.33-.76.28-2.97-.26-3.23-1.03-1.52-4.47,3.87-10.61,10.26-11.01,4.92-.31,8.7,2.58,10.34,6.6,1.93,4.74.87,9.36-3.4,13.11-4.06,3.57.15,7.03-3.04,8.22-1.39.52-4.06-.91-4.27-2.19Z"/><path class="cls-1" d="M192.24,229.37c.24,1.18-1.1,3.31-2.09,3.45s-3.33-1.34-3.54-2.39l-4.07-20.27c-.29-1.42,4.18-1.42,5.48-1.42,2.63-1.26,8.27-3.28,10.81-1.88.89.49.86,3.68.14,4.22s-1.98.78-3.6.6c-2.61-.29-6.14,2.64-5.54,5.66l2.4,12.02Z"/><path class="cls-1" d="M269.85,207.8c1.21-.6,3.94.94,4.35,2.02.52,1.38-.25,4.03-1.58,4.42s-3.88.09-4.63-.8c-.95-1.14.07-4.75,1.86-5.63Z"/><path class="cls-1" d="M931.06,282.15c10.64,6.99,21.92,9.6,33.8,6.19,14.67-4.2,19.79-18.45,17.73-34.29-6.15,6.72-13.63,9.75-22.47,10.75-21.12,2.41-39.59-11.69-43.5-32.63-3.12-16.72,2.86-34,16.78-43.26,11.39-7.58,23.83-8.78,36.31-4.64,12.91,4.28,24.26,15.57,24.65,29.98.49,18.12.76,35.8-.17,53.62s-15.72,30.98-33.06,32.99c-13.6,1.58-26.98-1.74-37.85-10.27-1.6-1.25-.71-6.1.7-7.19s5.08-2.58,7.08-1.27ZM975.53,245.69c10.2-9.77,9.67-32.54,1.3-42.7-7.75-9.42-21.03-11.61-31.87-7.04-11.03,4.65-16.91,15.97-16.65,28.31.24,11.61,6.01,21.89,15.77,26.48,10.45,4.91,22.79,3.24,31.44-5.05Z"/><path class="cls-1" d="M716.08,264.43c-21.2-.91-36.04-17.16-38.08-37.73s12.4-41.67,34.3-44.69c12.89-1.78,24.89,2.27,34.25,12.35l.17-46.17c0-2.53,3.46-4.74,5.5-5.06,1.9-.3,6.37,1.72,6.38,4.28l.13,102.72c0,2.45,1.77,6.81,1.11,8.82-1.42,4.32-6.22,5.58-8.79,4.42-4.25-1.92-4.75-5.5-4.54-10.99-7.84,8.29-17.99,12.58-30.43,12.05ZM746.95,224.81c.56-16.89-10.78-30.46-26.81-31.42-16.02-.95-28.53,11.5-29.79,27.89s10.39,30.95,26.75,31.75c16.05.78,29.28-11.09,29.85-28.22Z"/><path class="cls-1" d="M407.59,293.82c0,2.66-3.68,5.36-5.59,5.48-2.24.15-6.46-2.02-6.46-4.96l.06-79.12c0-4.74,1.6-10.33,3.69-14.25,6.35-11.94,18.07-17.74,31.09-19.22,25.38-2.89,46.2,16.92,45.64,42.63-.44,20.5-15.6,38.25-36.16,39.93-12.46,1.02-23.48-2.45-32.14-11.36l-.13,40.86ZM417.39,246.95c9.09,7.21,20.26,7.92,30.33,3.3,8.99-4.13,15.29-13.04,16.09-23.9,1-13.55-5.26-25.74-17.22-30.77s-25.8-2.52-33.74,7.78c-8.46,10.97-8.4,33.33,4.54,43.59Z"/><path class="cls-1" d="M407.73,110.21l-.14,41.07c0,2.22-2.9,4.74-4.63,5.3-1.94.63-7.3-.67-7.3-3.4l.16-81.91c.03-15.57,12.6-27.33,26.76-31.02,15.11-3.94,30.64-.74,41.7,10.5,13.28,13.5,15.35,34.76,5.96,50.88-8.32,14.11-22.45,21.14-38.7,19.79-8.94-.75-16.61-4.5-23.82-11.2ZM416.83,103.76c8.62,7.5,20.83,8.4,30.99,3.65,9.07-4.24,15.17-13.24,16.03-24.03,1.38-17.29-9.7-32.06-27.09-33.22-15.95-1.06-28.44,10.1-29.5,25.88-.69,10.21,1.12,20.37,9.58,27.72Z"/><path class="cls-1" d="M617.78,108.14c3.91,1.98,5.72,4.72,4.96,8.62-.49,2.54-4.3,4.69-7.58,3.94-5.58-1.28-8.33-6.26-9.29-11.68-12.26,12.99-31.16,16.05-46.72,8.58-15.23-7.31-24.29-23.78-22.72-41.37,1.15-12.89,8.63-24.13,17.98-30.27,11.97-7.86,25.27-9.25,37.86-4.37,14.37,5.57,24.84,18.08,25.06,33.9l.45,32.65ZM605.53,78.69c-.47-12.65-7.93-22.96-18.38-26.76-11.77-4.28-23.84-.66-31.78,9.19-9.86,12.23-9,30.83,2.62,41.63,9.14,8.49,21.95,9.64,32.46,4.14s15.55-15.37,15.08-28.2Z"/><path class="cls-1" d="M520.11,250.62c22.01,9.52,30.58-11.1,37.63-5.04,1.94,1.67,4.12,5.38,1.26,8.08-13.73,13.01-35.83,14.49-50.84,3.41-11.33-8.36-16.29-20.1-16.64-33.85-.51-19.87,12.39-37.28,32.19-40.88,11.63-2.12,22.82,1.38,31.06,9.11,13.74,12.88,13.77,36.07,6.94,36.1l-57.46.24c.71,10.98,7.4,19.17,15.85,22.83ZM553.67,216.23c-.76-7.49-2.97-13.14-7.77-17.2-7.68-6.5-17.57-7.38-26.9-3.27-7.54,3.32-13.22,11.17-14.67,20.53l49.34-.06Z"/><path class="cls-1" d="M706.09,74.11c-.01-7.82-3.39-14.56-8.42-18.57-6.07-4.84-13.65-6.22-21.38-4.55-8.72,1.88-19.18,8.37-19.27,18.3l-.43,47.01c-.02,2.28-3.69,4.47-5.59,4.78s-6.3-1.68-6.3-3.85l.03-73.91c0-3.28,6.01-4.78,8.15-3.69,2.71,1.38,4.27,4.57,3.97,9.59,6.71-6.69,14.87-9.91,24.91-10.31,18.09-.73,34.73,11.85,36.33,30.93,1.31,15.63.33,31.1.45,47.01-1.1,1.99-4.62,4.36-6.51,4.33-2.34-.04-5.89-3.01-5.9-5.78l-.06-41.3Z"/><path class="cls-1" d="M646.42,213.77c-.1-11.08-9.72-18.63-19.32-19.87-15.84-2.05-28.94,8.65-29.08,19.52l-.58,46.7c-.02,1.63-3.7,3.46-5.3,3.65-1.8.21-6.36-1.71-6.41-3.72l-.15-70.85c0-2.57,1.54-5.38,3.42-6.26s5.55-.48,6.81.85c1.63,1.73,1.9,4.42,2.11,8.5,6.68-6.64,14.82-9.87,24.8-10.33,18.72-.87,35.92,12.88,35.92,32.32v45.95c0,2.03-4.45,3.94-6.25,3.64-2.17-.36-5.55-2.98-5.57-5.7l-.39-44.41Z"/><path class="cls-1" d="M885.56,215.55c-.02-5.49-3.01-12.05-6.67-15.42-9.7-8.9-23.84-8.55-34.29-.77-3.5,2.61-7.8,8.18-7.82,12.84l-.14,45.17c0,2.85-2.54,5.51-5,6.38-1.91.68-6.88-1.03-6.88-3.57l.03-73.75c0-3.53,5.81-4.72,7.93-3.7,2.91,1.4,4.5,4.45,4.14,9.47,7.2-6.94,16.41-10.52,26.78-10.23,19.65.54,34.26,15.7,34.24,35.33l-.05,42.15c0,2.34-3.74,4.35-5.8,4.48s-6.26-1.99-6.27-4.62l-.19-43.76Z"/><path class="cls-1" d="M776.88,109.25c3.87-.58,6.35.43,7.93,2.38,1.38,1.7,1.3,6.38-1.19,7.61-7.56,3.72-16.71,1.53-23.26-2.99-7.01-4.83-10.01-13.08-10-21.99l.02-41.98-10.84.05c-3.27.02-5.85-1.73-6.23-4.53s1.21-6.35,4.26-6.44l12.76-.42-.05-23.81c0-3.16,2.34-5.93,5.03-6.78,2.24-.71,7.17,1.95,7.2,5.07l.22,25.64,18.23.12c2.66.02,4.75,4.06,4.36,6.26-.57,3.21-3.24,4.88-6.52,4.87l-16.15-.05.3,46.67c.05,7,7.67,11.25,13.95,10.31Z"/><path class="cls-1" d="M520.63,109.14c3.04-.43,5.53,1.62,6.2,3.76.74,2.36.19,6-2.75,6.98-11.53,3.85-26.06-4.4-26.09-17.88l-.25-98.47c0-2.22,4.64-3.67,6.4-3.51s5.45,2.06,5.45,4.4l.19,95.46c.01,6.22,5.54,10.02,10.86,9.27Z"/><path class="cls-1" d="M798.63,257.72c0,3.68-4.06,6.21-6.44,6.13-3.38-.11-6.44-2.86-6.44-6.6l.03-68.86c0-3.36,3.88-6.07,6.38-6.1,3.71-.04,6.53,2.98,6.52,6.97l-.05,68.46Z"/><path class="cls-1" d="M403.08,355.68v10.86c0,1.25-1.74,3.67-2.95,3.77-1.61.13-3.49-2.03-3.49-3.84l-.03-33.42c0-1.58,2.22-3.89,3.79-3.83l13.06.45c7.03.24,11.84,5.93,12.26,12.21s-4.09,12.86-11.08,13.22l-11.56.59ZM414.72,349.11c1.89-.05,4.19-3.96,4.49-5.77s-1.01-6.02-2.83-6.56c-4.6-1.35-8.62-1.19-13.33-1.09l-.17,13.75,11.84-.33Z"/><path class="cls-1" d="M577.8,355.72c.26,6.12-2.56,10.52-6.49,12.86-4.66,2.78-9.98,1.99-14.56-.44-1.88,1.53-4.18,2.47-6.17,1.13l-.15-38.24c.63-.89,1.89-2.2,2.73-2.54,1-.41,3.43,1.75,3.45,2.85l.2,13.71c4.59-3.4,9.07-3.59,13.62-1.2,3.87,2.03,7.12,6.09,7.36,11.87ZM559.58,363.22c4.76,2.59,8.38,1.13,10.55-2.01,1.92-2.77,2-6.94,0-9.91-1.73-2.56-5.66-4.06-9.06-2.56-2.8,1.24-4.61,4.53-4.68,7.04-.07,2.37,1.26,6.38,3.19,7.43Z"/><path class="cls-1" d="M514.77,355.7c.29,6.3-2.85,10.87-7.06,13.2-4.74,2.63-10.29,1.61-14.34-1.45l-3.26,3c-.68.63-2.7-2.47-2.46-2.99v-37.37s3.33-1.71,3.33-1.71c.81-.42,2.61,2.11,2.62,3.17l.21,13.54c4.61-3.39,9.09-3.75,13.72-1.33,3.69,1.94,6.99,6.35,7.25,11.94ZM496.59,363.28c4.64,2.64,8.32,1.07,10.56-2.03,1.97-2.72,2.01-6.87-.03-9.94-1.66-2.5-5.67-4.04-9-2.55-2.91,1.31-4.59,4.47-4.69,7.03s1.1,6.32,3.14,7.49Z"/><path class="cls-1" d="M755.94,367.57c-3.84,2.37-8.26,3.78-12.94,2-3.83-1.46-7.25-5.66-8.15-10.44-1.09-5.79,1.05-11.16,5.62-14.41s10.26-3.46,15.08.27l.09-12.79c0-1.01,1.11-3.24,1.98-3.56,1.04-.38,3.11.62,4.1,1.53l.18,37.24-1.96,2.81c-.55.79-2.85-1.06-4.01-2.66ZM755.84,355.64c-.27-4.95-4.29-8.01-8.57-7.4-3.5.5-6.22,3.95-6.3,7.97-.1,5.01,3.1,8.2,7.24,8.29,4.79.1,7.96-2.96,7.64-8.86Z"/><path class="cls-1" d="M995.82,353.59c1.02,6.75-1.1,11.56-5.72,14.68-4.27,2.89-10.69,3.17-14.87-.74l-2.53,2.75c-.76.83-3.56-1.72-3.56-2.86l-.04-35.35c0-1.23,1.77-3.55,2.9-3.61s3.27,1.86,3.31,3.19l.41,13.43c3.8-2.94,7.91-3.58,12.25-1.78,3.64,1.51,7.1,5.33,7.85,10.3ZM989.95,356.24c0-4.81-3.12-8.15-7.72-8.06-4.08.08-7.22,3.4-7.23,8.06s3.11,8.08,7.22,8.2c4.79.13,7.73-3.17,7.73-8.2Z"/><path class="cls-1" d="M900.07,368.22l-.66-15.75c-.14-3.3-4.75-4.88-6.99-4.15-3.16,1.03-4.86,3.2-4.93,6.94l-.23,12.11c-.02,1.08-2.34,3.54-3.23,3.06s-2.14-1.83-3.02-3.01l.12-36.75c.87-.96,2.78-2.25,3.88-2.21s2.46,2.52,2.46,3.73l.09,13c3.9-2.91,7.6-3.68,11.67-2.04,3.66,1.48,6.97,5.27,6.94,10.15l-.09,13.73c0,.96-1.38,2.76-1.99,3.28-.75.65-3.99-1.1-4.03-2.1Z"/><path class="cls-1" d="M710.12,358.69c1.83,6.6,8.36,7.37,13.35,3.97,1.02-.7,3.71-.45,4.66.63s-.15,3.67-1.68,4.64c-7.36,4.65-16.34,2.89-20.73-4.16s-1.91-16.54,6.23-20.26c4.73-2.16,10.18-1.52,14.04,1.81,3.41,2.93,5.53,8.12,3.93,13.24l-19.8.13ZM724.19,353.38c-1.34-5.36-4.5-5.41-8.1-5.28-2.25.08-4.59,2.12-5.8,5.19l13.9.09Z"/><path class="cls-1" d="M679.16,358.76c1.87,6.41,7.6,6.52,12.65,4.56l3.18-1.23c.9-.35,2.95,2.59,2.49,3.46-2.5,4.2-9.93,6.23-15.45,4.13-4.79-1.82-9.16-6.68-9.36-12.88-.18-5.39,3.22-11.36,8.97-13.6,4.56-1.77,9.72-1.06,13.44,2.03,3.4,2.82,5.33,8.33,3.83,13.24l-19.75.3ZM693.12,353.42c-1.45-5.27-4.49-5.42-8.03-5.28-2.34.09-4.7,2.06-5.83,5.21l13.87.07Z"/><path class="cls-1" d="M523.63,369.26c-3.07-1.54-4.95-5.24-4.67-8.27s3.35-7.07,7.02-7.32l11.27-.78c-1.51-6.01-7.51-5.72-11.31-3.11-1.1.75-3.92.53-4.83-.48s.19-3.64,1.91-4.71c6.71-4.19,17.48-3.01,19.62,5.84,1.14,4.69.29,11.89.37,16.75.01,1.02-2.07,3.88-2.8,3.25l-3.15-2.72c-3.31,2.48-8.94,3.83-13.44,1.57ZM536.51,358.2l-9.53.34c-1.16.04-2.03,4.06-1.12,4.87.75.68,2.64,1.56,3.82,1.65,3.98.32,7.93-2.4,6.84-6.86Z"/><path class="cls-1" d="M813.63,369.31c-3.06-1.6-4.91-5.33-4.67-8.32.25-3.18,3.31-7.13,6.98-7.36l11.27-.71c-3.26-9.36-10.75-2.16-14.57-2.72-.93-.13-2.05-2.73-1.47-3.53,2.23-3.04,7.73-4.97,11.79-4.33,3.12.49,9.13,2.64,9.25,7.46l.45,18.15c.02.9-1.88,2.91-2.52,2.48l-3.26-2.21c-3.96,1.76-8.94,3.34-13.25,1.09ZM826.72,358.52l-8.05-.39c-.92-.04-2.99,1.44-3.4,2.21s.1,2.88.85,3.46c1.84,1.41,5.15,1.58,7.19.65,1.83-.83,3.59-3.93,3.41-5.93Z"/><path class="cls-1" d="M463.61,342.71c8.28-2.04,15.78,3.06,17.58,10.58,1.7,7.1-2.9,14.83-10.24,16.66s-15.18-2.01-17.34-10.07c-1.79-6.67,1.65-15.11,10-17.17ZM464.56,348.75c-4.91,1.81-6.36,7.14-4.33,11.4,1.67,3.51,6.01,5.34,10.42,3.68,3.59-1.36,5.89-6.36,4.36-10.28s-5.42-6.64-10.44-4.79Z"/><path class="cls-1" d="M598.19,379.68c1.67-3.12,5.9-1.26,8.43-11.55l-9.45-20.53c-.53-1.15-.46-3.33.18-4.21s4.25-.33,4.78.82l7.79,17.02,6.84-16.79c.51-1.24,3.1-2.33,4.17-1.9s2.08,3.24,1.6,4.33l-13.45,30.83c-1.31,3.01-5.11,5.47-7.91,5.31-1.19-.07-3.46-2.43-2.97-3.33Z"/><path class="cls-1" d="M660.39,351.84c-.12-3.29-5.59-4.28-7.84-3.37-2.42.97-4.56,3.63-4.54,6.81l.06,11.89c0,1.19-1.81,3.21-2.79,3.28s-3.27-1.85-3.27-2.88l.03-22.44c0-1.07,2.54-3.62,3.23-2.99l2.97,2.72c2.65-1.81,6.61-3.21,10.46-2.3,2.87.68,7.74,3.76,7.87,7.78l.57,16.98c.03.99-1.97,3.11-2.95,3.12-1.17.02-3.17-1.99-3.21-3.2l-.58-15.42Z"/><path class="cls-1" d="M961.64,345.57l.11,20.83c0,1.24-1.46,3.99-2.58,3.85s-2.74-1.46-3.95-2.6c-2.82,2.41-7.31,3.61-11.48,2.11-3.31-1.2-6.83-5.26-6.79-9.87l.13-14.53c0-1.11,2.21-3.06,3.19-2.94,1.17.14,2.79,2.33,2.84,3.58l.56,15.46c.07,1.94,4.5,3.26,6.43,3.03,2.21-.25,5.23-2.3,5.28-5.42l.23-14.52c.02-1.02,2.53-2.42,3.41-2.16s2.61,2.16,2.61,3.18Z"/><path class="cls-1" d="M785.79,355.14c1.82.55,4.48,4.08,4.71,5.93.29,2.23-1.51,6.01-3.65,7.28-6.45,3.8-14.6,2.5-19.29-3.05.37-1.71,3.19-4.02,4.64-3.7,3.52,3.31,9.21,5.91,12.9.28-2.27-1.73-5.32-3.02-8.45-3.6-4.83-.89-9.87-5.37-7.32-10.45,3.76-7.5,14.84-7.14,20.01-1.33.26,1.38-2.21,4.15-3.36,3.55-7.34-3.79-12.17-1.21-11.01.65.36.58,1.66,1.68,2.33,1.89l8.51,2.56Z"/><path class="cls-1" d="M872.16,368.06c-6.86,4.19-14.83,3.03-19.65-3l3.55-3.65c5.54,4.95,12.44,4.26,12.9,1.24.15-.99-1.41-2.64-2.45-2.97l-8.62-2.73c-1.79-.57-4.03-3.71-4.31-5.42-.3-1.8,1.04-5.33,2.68-6.61,5.27-4.13,12.92-3.75,17.34,1.74.83,1.03-2.21,4.06-3.44,3.36-3.42-1.97-7.76-3.9-11.3.73,5.65,4.06,13.86,2.85,15.8,8.29,1.04,2.9.16,7.42-2.5,9.05Z"/><path class="cls-1" d="M591.86,370.16c-4.53.72-8.59-3.39-8.23-7.85v-31.16c.58-.87,1.88-2.3,2.68-2.76.96-.54,3.34,1.68,3.35,2.89l.06,32.51,3.95,2.2c.85.47-.64,3.99-1.81,4.17Z"/><path class="cls-1" d="M919.79,353.95l-.16,12.27c-.01,1.15-1.17,3.05-1.8,3.78s-4.21-.24-4.21-1.27l-.18-24.02c0-1.17,2.9-2.85,3.57-2.26l3.25,2.82c2.18-4.24,9.35-3.52,11.84-.78.73.8.16,3.66-.71,4.06s-2.74.39-3.97.03c-3.43-1-7.57.82-7.63,5.37Z"/><path class="cls-1" d="M445.46,348.64c-4.09-1.34-7.83,1.31-7.83,5.67v12.83c0,1.01-1.82,2.92-2.75,3.25-1.11.4-3.56-1.6-3.55-2.97l.17-23.76c.8-.64,2.92-1.74,3.48-1.26l3.19,2.77c2.95-4.04,9.48-3.69,12.57,0-.31.91-1.04,2.66-1.44,3.28-.51.78-2.81.51-3.83.17Z"/><path class="cls-1" d="M788.63,150.81c4.65-2.08,9.3.17,10.75,4.12,1.53,4.18.28,9.05-4.46,10.92-3.56,1.41-7.9.12-10.26-4.02-1.8-3.17-.71-8.92,3.97-11.01Z"/><path class="cls-1" d="M1000.67,362.65c1.8-1.16,5.18-.39,5.95,1.16.73,1.46-.07,4.79-1.75,5.96-1.17.82-3.76.26-5.14-.94s-1.47-4.63.94-6.18Z"/></g></svg>