<svg xmlns="http://www.w3.org/2000/svg" version="1.1" viewBox="0 0 100 100">
 <path d="m87.5 76.043h-5.207v-52.086h5.207c1.707 0 3.125-1.418 3.125-3.125s-1.418-3.125-3.125-3.125h-5.207v-5.207c0-1.707-1.418-3.125-3.125-3.125s-3.125 1.418-3.125 3.125v5.207h-52.086v-5.207c0-1.707-1.418-3.125-3.125-3.125s-3.125 1.418-3.125 3.125v5.207h-5.207c-1.707 0-3.125 1.418-3.125 3.125s1.418 3.125 3.125 3.125h5.207v52.082h-5.207c-1.707 0-3.125 1.418-3.125 3.125 0 1.707 1.418 3.125 3.125 3.125h5.207v5.207c0 1.707 1.418 3.125 3.125 3.125s3.125-1.418 3.125-3.125v-5.207h52.082v5.207c0 1.707 1.418 3.125 3.125 3.125 1.707 0 3.125-1.418 3.125-3.125v-5.207h5.207c1.707 0 3.125-1.418 3.125-3.125 0-1.707-1.418-3.125-3.125-3.125zm-63.543 0v-52.086h52.082v52.082z"/>
</svg>