<svg xmlns="http://www.w3.org/2000/svg" xmlns:xlink="http://www.w3.org/1999/xlink" xmlns:serif="http://www.serif.com/" viewBox="0 0 24 24" version="1.1" xml:space="preserve" style="" x="0px" y="0px" fill-rule="evenodd" clip-rule="evenodd" stroke-linejoin="round" stroke-miterlimit="2"><g><path d="M5.75,2c0,-0.414 -0.336,-0.75 -0.75,-0.75l-3,0c-0.414,0 -0.75,0.336 -0.75,0.75l0,3c0,0.414 0.336,0.75 0.75,0.75l3,0c0.414,0 0.75,-0.336 0.75,-0.75l0,-3Zm-1.5,0.75l0,1.5c0,0 -1.5,0 -1.5,0c0,0 0,-1.5 0,-1.5l1.5,-0Z"/><path d="M5.75,19c0,-0.414 -0.336,-0.75 -0.75,-0.75l-3,0c-0.414,0 -0.75,0.336 -0.75,0.75l0,3c0,0.414 0.336,0.75 0.75,0.75l3,0c0.414,0 0.75,-0.336 0.75,-0.75l0,-3Zm-1.5,0.75l0,1.5c0,0 -1.5,0 -1.5,0c0,0 0,-1.5 0,-1.5l1.5,-0Z"/><path d="M22.75,2c0,-0.414 -0.336,-0.75 -0.75,-0.75l-3,0c-0.414,0 -0.75,0.336 -0.75,0.75l0,3c0,0.414 0.336,0.75 0.75,0.75l3,0c0.414,0 0.75,-0.336 0.75,-0.75l0,-3Zm-1.5,0.75l0,1.5c0,0 -1.5,0 -1.5,0c-0,0 0,-1.5 0,-1.5l1.5,-0Z"/><path d="M22.75,19c0,-0.414 -0.336,-0.75 -0.75,-0.75l-3,0c-0.414,0 -0.75,0.336 -0.75,0.75l0,3c0,0.414 0.336,0.75 0.75,0.75l3,0c0.414,0 0.75,-0.336 0.75,-0.75l0,-3Zm-1.5,0.75l0,1.5c0,0 -1.5,0 -1.5,0c-0,0 0,-1.5 0,-1.5l1.5,-0Z"/><path d="M2.75,5l0,2.5c-0,0.414 0.336,0.75 0.75,0.75c0.414,0 0.75,-0.336 0.75,-0.75l0,-2.5c-0,-0.414 -0.336,-0.75 -0.75,-0.75c-0.414,0 -0.75,0.336 -0.75,0.75Z"/><path d="M19,2.75l-2.5,0c-0.414,-0 -0.75,0.336 -0.75,0.75c-0,0.414 0.336,0.75 0.75,0.75l2.5,0c0.414,-0 0.75,-0.336 0.75,-0.75c-0,-0.414 -0.336,-0.75 -0.75,-0.75Z"/><path d="M19.75,5l0,2.5c-0,0.414 0.336,0.75 0.75,0.75c0.414,0 0.75,-0.336 0.75,-0.75l0,-2.5c-0,-0.414 -0.336,-0.75 -0.75,-0.75c-0.414,0 -0.75,0.336 -0.75,0.75Z"/><path d="M19,19.75l-2.5,0c-0.414,0 -0.75,0.336 -0.75,0.75c0,0.414 0.336,0.75 0.75,0.75l2.5,0c0.414,0 0.75,-0.336 0.75,-0.75c0,-0.414 -0.336,-0.75 -0.75,-0.75Z"/><path d="M2.75,10.75l0,2.5c-0,0.414 0.336,0.75 0.75,0.75c0.414,0 0.75,-0.336 0.75,-0.75l0,-2.5c-0,-0.414 -0.336,-0.75 -0.75,-0.75c-0.414,0 -0.75,0.336 -0.75,0.75Z"/><path d="M13.25,2.75l-2.5,0c-0.414,-0 -0.75,0.336 -0.75,0.75c-0,0.414 0.336,0.75 0.75,0.75l2.5,0c0.414,-0 0.75,-0.336 0.75,-0.75c-0,-0.414 -0.336,-0.75 -0.75,-0.75Z"/><path d="M19.75,10.75l0,2.5c-0,0.414 0.336,0.75 0.75,0.75c0.414,0 0.75,-0.336 0.75,-0.75l0,-2.5c-0,-0.414 -0.336,-0.75 -0.75,-0.75c-0.414,0 -0.75,0.336 -0.75,0.75Z"/><path d="M13.25,19.75l-2.5,0c-0.414,0 -0.75,0.336 -0.75,0.75c0,0.414 0.336,0.75 0.75,0.75l2.5,0c0.414,0 0.75,-0.336 0.75,-0.75c0,-0.414 -0.336,-0.75 -0.75,-0.75Z"/><path d="M2.75,16.5l0,2.5c-0,0.414 0.336,0.75 0.75,0.75c0.414,0 0.75,-0.336 0.75,-0.75l0,-2.5c-0,-0.414 -0.336,-0.75 -0.75,-0.75c-0.414,0 -0.75,0.336 -0.75,0.75Z"/><path d="M7.5,2.75l-2.5,0c-0.414,-0 -0.75,0.336 -0.75,0.75c-0,0.414 0.336,0.75 0.75,0.75l2.5,0c0.414,-0 0.75,-0.336 0.75,-0.75c-0,-0.414 -0.336,-0.75 -0.75,-0.75Z"/><path d="M19.75,16.5l0,2.5c-0,0.414 0.336,0.75 0.75,0.75c0.414,0 0.75,-0.336 0.75,-0.75l0,-2.5c-0,-0.414 -0.336,-0.75 -0.75,-0.75c-0.414,0 -0.75,0.336 -0.75,0.75Z"/><path d="M7.5,19.75l-2.5,0c-0.414,0 -0.75,0.336 -0.75,0.75c0,0.414 0.336,0.75 0.75,0.75l2.5,0c0.414,0 0.75,-0.336 0.75,-0.75c0,-0.414 -0.336,-0.75 -0.75,-0.75Z"/></g></svg>