<?xml version="1.0" encoding="UTF-8"?><svg id="Layer_2" xmlns="http://www.w3.org/2000/svg" viewBox="0 0 55.21 51.42"><defs><style>.cls-1{fill:#020202;}.cls-2{fill:#fff;}</style></defs><g id="Layer_5"><g id="Layer_3"><path class="cls-2" d="M.5,14.1s8.5,9.8,9.7,11.3c2.6,3.3,5.3,6.5,8,9.7.8,1,1.4,3.2,2.3,3.9,3.2,2.5,7.2,5,10.7,7.1,1.6,1,4.6,4.6,6.4,4.8,1.2.2,4.1-1.4,5.2-1.8,1.2-.5,4.8-1.6,5.5-2.3,1.8-1.8,2.4-6,3.6-8.2.9-1.8,3-4.3,2.8-6.5-.2-3.9-2.3-7.3-3.3-11-.7-2.4-.4-4.6-.4-7.1s0-.7,0-.7c-8.5-2.8-17.7-4.9-26.4-7.4C19.9,4.6,5.3.5,5.3.5L.6,14.1h-.1Z"/><path class="cls-1" d="M55.21,32.42c0,1.65-1.05,3.36-1.98,4.87-.34.55-.66,1.07-.89,1.54-.45.83-.81,1.94-1.2,3.13-.64,1.97-1.31,4.01-2.49,5.2-.54.54-2.14,1.14-4.19,1.86-.6.21-1.14.4-1.47.54-.31.11-.72.3-1.2.52-1.78.81-3.33,1.47-4.27,1.31-1.28-.14-2.91-1.64-4.48-3.09-.8-.74-1.56-1.44-2.1-1.77-3.24-1.94-7.4-4.52-10.74-7.13-.6-.47-1.05-1.42-1.48-2.33-.29-.62-.59-1.26-.9-1.65-2.66-3.15-5.4-6.4-8-9.7C8.63,24.24.21,14.53.12,14.43c-.13-.15-.16-.36-.08-.54.04-.08.1-.15.17-.2L4.83.34c.09-.25.35-.39.61-.32,0,0,14.6,4.1,19.3,5.4,3.27.94,6.66,1.84,9.95,2.7,5.32,1.41,10.83,2.86,16.01,4.55h.81v.63c0,.16-.08.31-.21.41,0,0,0,0,0,0l.22.29c0,.59-.02,1.17-.03,1.73-.05,1.78-.1,3.47.41,5.23.36,1.34.88,2.67,1.38,3.95.89,2.27,1.8,4.61,1.93,7.16.01.11.02.23.02.34ZM1.14,14.07c1.46,1.69,8.36,9.65,9.45,11.01,2.59,3.29,5.33,6.53,7.97,9.67.41.51.74,1.21,1.05,1.88.36.77.77,1.64,1.19,1.97,3.3,2.58,7.43,5.13,10.65,7.07.63.39,1.42,1.12,2.25,1.89,1.32,1.22,2.96,2.73,3.94,2.84.75.12,2.61-.72,3.72-1.23.5-.23.95-.43,1.25-.54.33-.14.88-.33,1.5-.56,1.27-.45,3.4-1.21,3.82-1.63,1.02-1.02,1.65-2.94,2.25-4.8.4-1.23.78-2.39,1.26-3.28.24-.48.57-1.02.92-1.6.91-1.49,1.95-3.17,1.82-4.62-.12-2.41-.97-4.57-1.87-6.87-.51-1.31-1.04-2.66-1.42-4.05-.56-1.9-.5-3.66-.45-5.53.02-.56.03-1.12.03-1.7v-.34c-5.19-1.7-10.72-3.16-16.08-4.57-3.29-.87-6.69-1.77-9.96-2.71C20.26,5.22,8.12,1.81,5.62,1.11L1.14,14.07Z"/><path class="cls-1" d="M38.85,50s0,.02,0,.03c-.02.16-.05.49-.33.51-.37.02-.51-.22-1.62-6-.28-1.46-.52-2.72-.65-3.16-.08-.28-.17-.82-.27-1.44-.14-.86-.34-2.03-.5-2.3-.93-1.48-2.18-2.65-3.39-3.79-1.62-1.53-3.3-3.11-4.23-5.44-.9-2.27.7-4.08,2.1-5.68,1.04-1.18,1.94-2.21,1.59-3.12-.23-.56-4.74-3.3-6.44-4.34-.66-.4-1.16-.71-1.36-.84-1.08-.68-2.3-1.25-3.49-1.8-1.4-.65-2.86-1.33-4.12-2.21-1.1-.75-2.21-1.56-3.38-2.42C9.92,5.9,6.96,3.74,3.99,2.33c-.12-.06-.18-.21-.12-.33.06-.12.21-.18.33-.12,3.01,1.43,5.98,3.6,8.86,5.71,1.17.86,2.28,1.66,3.37,2.41,1.23.85,2.66,1.52,4.05,2.17,1.19.56,2.43,1.13,3.55,1.83.21.14.7.44,1.35.84,4.04,2.46,6.43,4,6.65,4.59.45,1.2-.59,2.38-1.69,3.63-1.31,1.49-2.8,3.19-2.01,5.17.89,2.23,2.45,3.7,4.11,5.26,1.23,1.16,2.5,2.36,3.47,3.9.2.33.36,1.23.57,2.48.1.58.19,1.13.26,1.39.13.46.38,1.73.66,3.21.34,1.8.84,4.39,1.13,5.33.03-.01.07-.01.1-.01.13.01.23.12.23.25Z"/><path class="cls-1" d="M39.89,49.15c0,.23-.01.46-.04.68-.02.14-.14.23-.28.21-.14-.02-.23-.14-.21-.28.24-1.79-.64-3.94-1.5-6.03-.55-1.34-1.07-2.61-1.3-3.78-.29-1.41-.41-2.77-.53-4.08-.17-1.89-.33-3.68-.96-5.59-.21-.58-.69-1.04-1.2-1.52-.63-.6-1.29-1.22-1.41-2.12-.09-.78.23-2.56.56-4.44.38-2.13.95-5.34.52-5.71-1.4-1.21-3.41-1.89-5.36-2.54-1.06-.36-2.07-.7-2.98-1.12-5.97-2.71-11.37-6.3-16.6-9.77l-1.74-1.15c-.12-.08-.15-.23-.07-.35.08-.12.23-.15.35-.07l1.74,1.15c5.21,3.46,10.59,7.03,16.53,9.73.89.41,1.88.74,2.93,1.1,1.99.67,4.05,1.36,5.53,2.64.59.53.26,2.68-.36,6.17-.33,1.84-.63,3.58-.56,4.29.1.72.66,1.26,1.26,1.82.53.5,1.08,1.02,1.33,1.72.66,1.97.82,3.79.99,5.71.12,1.29.23,2.63.52,4.02.23,1.13.73,2.37,1.27,3.69.77,1.9,1.57,3.85,1.57,5.6Z"/></g></g></svg>