<?xml version="1.0" encoding="UTF-8"?><svg id="Layer_2" xmlns="http://www.w3.org/2000/svg" viewBox="0 0 23.34 33.71"><defs><style>.cls-1{fill:#020202;}.cls-2{fill:#fff;}</style></defs><g id="Layer_5"><g id="Layer_3"><path class="cls-2" d="M8.33.5C7.23.5,1.43,3.9,1.33,4.8c-.2,1.5.2,3,0,4.5-.7,6.6-1.7,11.7.6,18.1,1.4,3.8,2.2,4,6.2,4.9.5,0,2,1,2.4.9,1.2-.3,2.6-1.8,3.7-2.4,1.6-.8,4.4-1.4,5.5-2.8,1-1.2,3.3-11.2,3.1-13-.2-1.6-2.1-3.4-3-4.8-.8-1.4-1.9-2.8-2.6-4.2-.2-.5,0-1.4-.4-1.7-2.5-1.7-5.7-3.6-8.7-3.8h.2Z"/><path class="cls-1" d="M23.34,15.21c0,2.39-2.16,11.83-3.23,13.11-.84,1.06-2.49,1.68-3.95,2.23-.63.24-1.23.46-1.71.7-.38.21-.83.56-1.31.93-.82.64-1.66,1.3-2.5,1.51-.37.09-.81-.11-1.57-.48-.3-.15-.8-.39-.95-.4-.02,0-.08,0-.1-.01-4.17-.94-5.11-1.27-6.56-5.21C-.61,21.83-.06,17.07.57,11.57c.09-.75.17-1.53.26-2.32.1-.71.05-1.42,0-2.16-.05-.76-.1-1.55,0-2.35C.96,3.57,5.96.68,7.83.1c.08-.06.19-.1.3-.1h.2c.06,0,.12.01.17.03,3.07.32,6.2,2.22,8.61,3.86.44.33.48.88.5,1.35.01.22.03.45.08.57.37.74.9,1.54,1.42,2.31.4.6.8,1.21,1.15,1.83.25.39.61.84.99,1.32.9,1.13,1.91,2.41,2.07,3.66,0,.08.01.17.01.27ZM8.19,31.8c.32.02.72.21,1.32.5.3.15.8.39.95.4.57-.15,1.33-.74,2.06-1.32.51-.4,1-.78,1.46-1.03.54-.27,1.16-.5,1.82-.75,1.34-.5,2.86-1.07,3.53-1.92.88-1.05,3.19-10.85,3-12.64-.12-.96-1.04-2.13-1.86-3.16-.4-.5-.77-.98-1.06-1.43-.35-.61-.75-1.21-1.13-1.79-.53-.8-1.08-1.63-1.49-2.46-.13-.31-.15-.62-.16-.92-.01-.19-.03-.53-.09-.61-2.15-1.46-5.36-3.44-8.29-3.69-1.16.18-6.09,3.15-6.41,3.9-.08.66-.04,1.37.01,2.11.05.76.1,1.55,0,2.35-.08.78-.17,1.56-.26,2.31-.64,5.6-1.15,10.03.83,15.55,1.31,3.55,1.91,3.7,5.8,4.57Z"/><path class="cls-1" d="M18.63,10.68c0,.19-.02.38-.05.57-.46,2.3-1.84,4.28-3.18,6.2-1.66,2.38-3.22,4.62-3.22,7.45,0,.98.76,2.63,1.37,3.95.29.62.56,1.22.72,1.66.05.13-.02.27-.15.32-.13.05-.27-.02-.32-.15-.15-.43-.42-1.01-.7-1.62-.66-1.44-1.41-3.08-1.41-4.16,0-2.99,1.68-5.4,3.31-7.74,1.31-1.87,2.66-3.81,3.1-6.01.12-.62-.04-1.3-.21-2.02-.21-.9-.44-1.83-.08-2.73.05-.13.2-.19.33-.14.13.05.19.2.14.32-.3.75-.1,1.56.1,2.42.13.55.27,1.11.27,1.66Z"/><path class="cls-1" d="M17.83,9.85c0,.44-.04.88-.16,1.32-.65,2.22-2.02,4.17-3.33,6.05-1.78,2.54-3.46,4.93-3.46,7.89-.06,1.44.48,2.75,1.05,4.13.31.74.62,1.51.84,2.3.04.13-.04.27-.18.31-.13.04-.27-.04-.31-.18-.21-.76-.52-1.51-.82-2.24-.57-1.37-1.14-2.79-1.09-4.33,0-3.1,1.8-5.67,3.55-8.16,1.29-1.85,2.63-3.76,3.26-5.9.24-.88.13-1.79.02-2.75-.11-.92-.22-1.87-.02-2.83.03-.13.16-.22.3-.19.13.03.22.16.19.3-.18.88-.08,1.79.03,2.66.06.54.13,1.08.13,1.63Z"/><path class="cls-1" d="M13.88,12.7c0,1.22-.4,2.44-.79,3.63-.37,1.12-.71,2.18-.71,3.17,0,.14-.11.25-.25.25s-.25-.11-.25-.25c0-1.07.36-2.16.74-3.32.38-1.15.76-2.34.76-3.48,0-3.9-2.36-8.98-4.64-11.64-.09-.1-.08-.26.03-.35.11-.09.26-.08.35.03,2.31,2.69,4.76,7.8,4.76,11.96Z"/><path class="cls-1" d="M10.98,24.4c0,.06-.02.12-.07.17-.8.87-1.81.96-2.78,1.04-.57.05-1.17.1-1.71.32-1.66.61-2.35,2.1-3.08,3.67l-.19.4c-.06.12-.21.18-.33.12-.12-.06-.18-.21-.12-.33l.19-.4c.74-1.6,1.51-3.25,3.35-3.93.61-.24,1.24-.3,1.85-.35.92-.08,1.78-.16,2.46-.88.09-.1.25-.11.35-.01.05.05.08.12.08.18Z"/><path class="cls-1" d="M13.91,13.45c0,.65-.62,1.56-1.15,2.33-.18.27-.34.5-.41.63-.67,1.43-1.5,3.21-2.63,4.55-.3.36-.77.78-1.32,1.27-1.41,1.27-3.32,3.01-3.13,4.43.02.14-.08.26-.21.28-.14.02-.26-.08-.28-.21-.24-1.67,1.71-3.45,3.29-4.87.53-.48.99-.9,1.27-1.23,1.09-1.29,1.91-3.04,2.56-4.44.09-.17.24-.4.45-.7.39-.57,1.3-1.91,1-2.22-.1-.1-.1-.26,0-.35s.26-.1.35,0c.14.14.2.32.2.52Z"/></g></g></svg>