<?xml version="1.0" encoding="UTF-8"?><svg id="Layer_2" xmlns="http://www.w3.org/2000/svg" viewBox="0 0 65.7 60.23"><defs><style>.cls-1{fill:#020202;}.cls-2{fill:#fff;}</style></defs><g id="Layer_5"><g id="Layer_3"><path class="cls-2" d="M8.03,34.12c2.5,2.2,7,5.2,9.6,7.7,8.7,8.2,18.5,20.3,31.5,17.5,1.7-.4,8.6-1.3,9.6-2.8,2.2-3.3,4.2-6.8,6.3-10.2v-.4c1.6-16.7-8.5-27.3-20.6-37.2-2.9-2.4-7.7-9.2-12.1-8.1-3.1.8-5.9,3.5-8.5,5.1C19.33,8.62,1.33,18.62.53,24.02c-.3,2.4,1.5,4.1,2.7,5.7,1.3,1.7,3,2.8,4.7,4.2v.2h.1Z"/><path class="cls-1" d="M65.7,42.55c0,1.11-.05,2.25-.17,3.42v.35c0,.09-.02.18-.07.26-.7,1.13-1.38,2.27-2.07,3.41-1.36,2.26-2.76,4.59-4.24,6.8-.84,1.26-4.4,1.99-8.28,2.7-.7.13-1.27.23-1.62.31-11.52,2.48-20.48-6.35-28.38-14.14-1.22-1.2-2.41-2.37-3.58-3.48-1.46-1.4-3.52-2.96-5.51-4.47-1.47-1.11-2.87-2.17-3.94-3.1-.22-.04-.38-.23-.4-.45-.36-.29-.71-.57-1.06-.84-1.29-1.01-2.52-1.96-3.54-3.29-.2-.26-.4-.52-.62-.79C1.07,27.8-.24,26.18.04,23.96c.71-4.8,13.61-12.62,20.53-16.82,1.25-.76,2.29-1.39,2.99-1.84.8-.49,1.61-1.08,2.46-1.7,1.95-1.42,3.96-2.89,6.19-3.46,3.6-.9,7.23,2.85,10.14,5.85.88.91,1.71,1.77,2.41,2.34,10.21,8.36,20.94,18.53,20.95,34.21ZM64.53,46.18v-.26c1.65-17.2-9.68-28.02-20.42-36.81-.74-.61-1.59-1.49-2.49-2.42-2.73-2.83-6.13-6.34-9.17-5.58-2.04.53-3.97,1.94-5.84,3.3-.87.63-1.69,1.23-2.52,1.74-.7.45-1.75,1.09-3,1.85C14.79,11.82,1.67,19.77,1.03,24.09c-.21,1.79.89,3.18,1.97,4.52.22.27.44.54.63.81.94,1.22,2.11,2.14,3.35,3.11.42.33.84.66,1.27,1.01.08.07.14.16.17.26,1.06.93,2.47,2,3.96,3.12,2.02,1.53,4.1,3.1,5.6,4.54,1.17,1.11,2.37,2.29,3.59,3.49,7.72,7.62,16.48,16.25,27.46,13.88.35-.08.94-.19,1.66-.32,2.26-.41,6.95-1.26,7.63-2.27,1.46-2.19,2.86-4.52,4.21-6.77.66-1.1,1.33-2.21,2-3.3ZM8.03,34.12h0s0,0,0,0Z"/><path class="cls-1" d="M38.42,27.99c0,1.68-.14,3.29-.34,4.48-.05.36-.27.85-1.01,1.13-2.61.99-9.54-1.39-10.6-2.29-2.79-2.26-1.19-8.01-.37-10.37,0,0,0,0,0,0,.54-1.4,2.74-2.02,4.63-2.14,2.55-.16,5.56.5,6.53,2.31.86,1.65,1.17,4.35,1.17,6.88ZM25.38,27.1c0,1.55.36,2.98,1.41,3.83.97.82,7.76,3.1,10.1,2.2.42-.16.64-.4.69-.74.5-2.9.6-8.4-.77-11.05-.86-1.61-3.74-2.19-6.06-2.04-2.17.13-3.81.85-4.19,1.81-.46,1.33-1.18,3.78-1.18,5.99Z"/><path class="cls-1" d="M61.58,51.42c0,.08-.04.16-.12.21-.12.07-.27.04-.34-.08-.56-.89-.95-1.86-1.33-2.8-.45-1.12-.87-2.18-1.56-3.08-1.82-2.44-5.61-4.21-8.97-5.77-1.38-.64-2.68-1.25-3.76-1.86-.41-.22-1.31-.54-2.35-.9-3.45-1.22-6.33-2.33-6.47-3.59-.01-.14.08-.26.22-.28.14-.02.26.08.28.22.12,1.05,3.89,2.38,6.14,3.17,1.06.37,1.97.7,2.42.94,1.07.6,2.36,1.21,3.73,1.85,3.41,1.59,7.27,3.39,9.15,5.93.72.95,1.18,2.09,1.62,3.19.37.92.75,1.87,1.29,2.72.03.04.04.09.04.13Z"/><path class="cls-1" d="M57.58,44.12c0,.08-.04.16-.12.21-.12.07-.27.04-.34-.08-1.42-2.23-2.83-4.65-3.53-7.27-.16-.55-.29-1.33-.43-2.16-.29-1.69-.64-3.8-1.41-4.64-.84-.9-6.5.94-9.88,2.03-1.9.62-3.54,1.15-4.31,1.25-.14.02-.26-.08-.28-.22-.01-.13.08-.26.22-.28.72-.09,2.34-.62,4.22-1.23,5.29-1.71,9.42-2.94,10.4-1.89.87.94,1.22,3.04,1.54,4.89.14.81.27,1.58.42,2.11.69,2.56,2.08,4.94,3.47,7.14.03.04.04.09.04.13Z"/><path class="cls-1" d="M51.17,57.67c0,.46-.03.92-.09,1.38-.02.14-.14.23-.28.21-.14-.02-.23-.14-.21-.28,1.09-8.19-8.39-15.32-15.31-20.53-1.15-.86-2.23-1.68-3.19-2.44-.75-.57-1.51-1.29-2.25-1.99-.93-.88-1.9-1.79-2.83-2.4-.12-.08-.15-.23-.07-.35.08-.12.23-.15.35-.07.98.63,1.96,1.56,2.9,2.45.73.69,1.48,1.4,2.21,1.96.96.76,2.04,1.58,3.19,2.44,6.64,4.99,15.6,11.73,15.6,19.62Z"/><path class="cls-1" d="M33.58,4.32s0,.06-.02.09c-.26.71-.5,1.46-.74,2.19-.77,2.38-1.57,4.85-3.2,6.79-.58.68-1.29,1.29-1.97,1.87-1.38,1.18-2.69,2.3-3.07,4.02-.39,1.71-.03,3.31.35,5.01.18.78.36,1.59.46,2.41.01.14-.08.26-.22.28-.14.02-.26-.08-.28-.22-.09-.79-.27-1.59-.45-2.36-.38-1.67-.77-3.41-.35-5.23.42-1.88,1.85-3.1,3.24-4.29.67-.57,1.36-1.16,1.92-1.82,1.57-1.87,2.35-4.28,3.11-6.62.24-.73.48-1.48.75-2.2.05-.13.19-.2.32-.15.1.04.16.13.16.23Z"/></g></g></svg>