<?xml version="1.0" encoding="UTF-8"?><svg id="Layer_2" xmlns="http://www.w3.org/2000/svg" viewBox="0 0 46.1 50.61"><defs><style>.cls-1{fill:#020202;}.cls-2{fill:#fff;}</style></defs><g id="Layer_5"><g id="Layer_3"><path class="cls-2" d="M.5,16.21c0,.2,1.1,1,2.2,2.6.9,1.4,1.2,2.1,1.9,3.7,1.6,3.5,3.4,6.9,5.1,10.2.9,1.7,3,6.9,4.7,7.9,2.5,1.5,5,2.8,7.3,4.6,1.3,1,5,4.9,6.8,4.9s3.3-1.7,4.5-2.1c.8-.2,7.4-1.3,7.5-2.3.8-4.8,4.3-9.1,5-14,.6-4.1-1.7-8.3-2.7-12.2-.2-.9-.4-5.9-1.3-6.4-5.3-3.1-10.8-5.9-16.1-8.8-.8-.5-3.5-4-4.5-3.8-3,.4-6.1,1.1-9.2,1.4-2.3.2-4.6.4-6.9.4s-.5-.2-.5,0C2.9,6.81,1.8,11.51.5,16.11v.1h0Z"/><path class="cls-1" d="M46.1,30.32c0,.49-.03.98-.1,1.47-.37,2.58-1.49,5-2.58,7.34-1.05,2.26-2.04,4.39-2.42,6.66-.09.87-1.8,1.5-7.04,2.53-.4.08-.7.14-.83.17-.34.11-.8.42-1.28.75-.96.64-2.05,1.37-3.34,1.37-1.43,0-3.46-1.74-5.78-3.85-.54-.49-1.01-.92-1.32-1.16-1.71-1.34-3.51-2.38-5.41-3.49-.61-.36-1.23-.71-1.84-1.08-1.34-.79-2.72-3.55-4.14-6.55-.3-.63-.55-1.17-.75-1.54l-.83-1.6c-1.44-2.79-2.94-5.68-4.29-8.63l-.05-.11c-.66-1.5-.96-2.19-1.82-3.53-.64-.93-1.28-1.57-1.7-2-.41-.42-.58-.59-.58-.87v-.1s0-.09.02-.14c.51-1.8.99-3.61,1.46-5.42.68-2.57,1.38-5.22,2.15-7.78-.23-.04-.51-.15-.51-.51,0-.53.59-.53.79-.53.23,0,.41.03.54.09.1,0,.21,0,.34,0,2.28,0,4.61-.2,6.86-.4,1.79-.17,3.62-.49,5.39-.79,1.25-.22,2.54-.44,3.79-.6.83-.17,1.96.94,3.58,2.65.51.53,1.03,1.09,1.25,1.23,1.76.96,3.57,1.93,5.39,2.9,3.53,1.88,7.18,3.83,10.7,5.89.75.42,1.04,2.06,1.37,5.37.06.61.12,1.14.16,1.35.29,1.11.68,2.25,1.1,3.46.84,2.43,1.71,4.94,1.71,7.46ZM1.02,16.1c.06.07.16.16.27.28.42.42,1.12,1.14,1.82,2.15.91,1.42,1.22,2.13,1.9,3.68l.04.1c1.33,2.92,2.82,5.8,4.26,8.58l.82,1.59c.2.38.46.93.77,1.58.95,2.03,2.55,5.42,3.74,6.12.61.37,1.22.72,1.83,1.08,1.85,1.07,3.76,2.18,5.52,3.56.34.26.82.7,1.38,1.21,1.48,1.34,3.95,3.59,5.11,3.59.99,0,1.94-.64,2.78-1.2.54-.36,1.06-.71,1.56-.87.18-.05.49-.11.92-.19,4.8-.95,6.06-1.49,6.27-1.77.38-2.35,1.44-4.65,2.47-6.86,1.06-2.28,2.15-4.63,2.5-7.07.4-2.77-.59-5.66-1.56-8.45-.41-1.17-.83-2.38-1.13-3.55-.06-.28-.11-.79-.18-1.49-.12-1.16-.43-4.23-.88-4.61-3.5-2.05-7.14-3.99-10.66-5.87-1.82-.97-3.63-1.94-5.42-2.92-.34-.21-.78-.67-1.47-1.4-.72-.76-2.23-2.35-2.7-2.35-1.25.17-2.53.39-3.77.6-1.79.31-3.63.63-5.47.8-2.27.2-4.62.4-6.95.4h-.13c-.8,2.62-1.52,5.35-2.22,8-.47,1.77-.93,3.54-1.43,5.3Z"/><path class="cls-1" d="M41.35,14.01s0,.08-.03.12c-.96,1.73-1.29,3.56-1.64,5.5-.18,1-.36,2.03-.64,3.04-.29,1.18-.66,2.38-1.05,3.66-1.31,4.33-2.67,8.8-1.45,12.9.34,1.15.97,2.21,1.64,3.34.69,1.16,1.4,2.36,1.77,3.66.03.13-.04.27-.17.31-.13.04-.27-.04-.31-.17-.35-1.24-1.04-2.41-1.71-3.54-.66-1.1-1.33-2.25-1.69-3.45-1.26-4.25.12-8.79,1.46-13.19.39-1.27.75-2.47,1.04-3.64.27-.99.46-2.02.63-3,.34-1.89.69-3.85,1.69-5.66.07-.12.22-.16.34-.1.08.05.13.13.13.22Z"/><path class="cls-1" d="M36.75,39.61c0,.09-.05.18-.14.22-.12.06-.27.02-.34-.11l-.49-.95c-1.63-3.16-3.32-6.43-4.33-10-.32-1.27-.02-2.67-.3-3.81-.99-3.96-2.5-7.78-4.48-11.34-.91-1.56-1.46-3.24-1.99-4.87-.47-1.46-.92-2.84-1.61-4.13-.64-1.07-1.34-2.04-2.07-2.85-.98-.98-.91-1.05-.76-1.2.06-.06.21-.13.36,0l.06.06s.05.06.06.09c.17.2.52.58.64.71.75.85,1.47,1.84,2.14,2.95.72,1.34,1.2,2.81,1.66,4.23.52,1.6,1.06,3.26,1.95,4.78,2,3.61,3.53,7.46,4.53,11.47.31,1.26.01,2.66.3,3.8.99,3.52,2.67,6.76,4.29,9.9l.49.95s.03.08.03.11Z"/><path class="cls-1" d="M36.15,32.71c0,.11-.07.21-.18.24-.13.04-.27-.04-.31-.17-.38-1.33-.65-2.68-.91-3.99-.44-2.23-.86-4.34-1.78-6.37-1.1-2.4-2.45-4.78-3.75-7.08-2.12-3.76-4.32-7.64-5.56-11.75-.04-.13.03-.27.17-.31.13-.04.27.03.31.17,1.23,4.05,3.41,7.91,5.52,11.65,1.31,2.31,2.66,4.71,3.77,7.12.95,2.09,1.39,4.32,1.82,6.48.26,1.3.52,2.64.9,3.95,0,.02,0,.05,0,.07Z"/></g></g></svg>