<?xml version="1.0" encoding="UTF-8"?><svg id="Layer_2" xmlns="http://www.w3.org/2000/svg" viewBox="0 0 125.31 85.53"><defs><style>.cls-1{fill:#020202;}.cls-2{fill:#fff;}</style></defs><g id="Layer_5"><g id="Layer_3"><path class="cls-2" d="M83.51,84.93c-1.4-.4-13.5-11.9-15.1-13-3.8-2.6-7.1-5.8-10.7-8.6-.7-.5-1.6-2.1-2.2-2.4-1.9-.9-7.5.6-9.8.5-8-.2-16-1.5-23.9-2.2-2.5-.2-8.4.5-10.6-.9-1.3-.8-5.6-10.3-6.5-12-.6-1.3-4.4-7.7-4.2-9.2.6-3,9.7-12.4,12.1-14.6,3.5-3.2,7.4-12.6,11.4-14.7,2.6-1.3,7.4,0,10.3,0,8.8,0,17.4-.7,26.1-1.8,8.6-1,17.2-2.2,25.6-3.9,2.3-.5,6.4-2.1,8.8-1.5,5.6,1.4,16,11.1,20.6,15.1,2.6,2.2,7.9,4.1,9.4,7.4.2.4-3,14.4-3.2,15.9-1.2,10.5.2,24.6-9.4,32-3.9,3-9.1,4.3-13.5,6.2-3,1.3-5.3,3.5-8.2,4.9-1.4.7-5.8,3.1-7.1,2.7v.2h0l.1-.1Z"/><path class="cls-1" d="M125.31,23.19c0,.58-.35,2.4-1.97,9.91-.6,2.79-1.17,5.42-1.24,5.99-.23,2.06-.37,4.24-.51,6.55-.56,9.24-1.2,19.71-9.08,25.78-2.82,2.17-6.29,3.46-9.63,4.71-1.39.52-2.7,1.01-3.97,1.56-1.55.67-2.96,1.62-4.31,2.54-1.22.83-2.48,1.68-3.87,2.35l-.6.31c-2.35,1.21-4.93,2.46-6.35,2.48h-.01c-.14.16-.36.2-.54.12-.13-.06-.24-.17-.28-.3-1.35-.83-4.73-3.86-9.5-8.17-2.43-2.2-4.72-4.27-5.31-4.68-2.34-1.6-4.52-3.45-6.62-5.23-1.33-1.13-2.71-2.3-4.1-3.38-.38-.27-.79-.8-1.18-1.3-.31-.4-.73-.94-.94-1.04-1.04-.49-3.72-.11-5.88.19-1.44.2-2.81.4-3.72.36-5.22-.13-10.52-.74-15.64-1.32-2.72-.31-5.54-.63-8.28-.88-.7-.06-1.74-.04-2.83-.02-2.81.05-6.31.11-7.99-.96-.94-.58-2.76-4.1-5.6-10-.48-1-.87-1.8-1.07-2.18-.16-.34-.49-.94-.9-1.71C1.51,41.43-.16,38.26.01,37.07c.66-3.32,10.25-13.06,12.26-14.9,1.45-1.32,2.98-3.76,4.6-6.34,2.21-3.52,4.5-7.17,6.91-8.43,1.92-.96,4.84-.62,7.41-.32,1.15.13,2.24.26,3.12.26,8.07,0,16.35-.57,26.04-1.8,10.14-1.18,18.26-2.42,25.56-3.89.57-.12,1.27-.32,2.02-.54,2.26-.64,5.08-1.44,7-.96,5.03,1.26,13.69,8.92,18.87,13.5.72.64,1.37,1.21,1.94,1.7.85.72,2.04,1.43,3.29,2.17,2.43,1.45,5.19,3.09,6.24,5.4.03.06.05.12.05.27ZM83.41,84.33s.1,0,.14.02c.95.29,4.84-1.7,6.11-2.36l.61-.31c1.33-.64,2.56-1.47,3.75-2.28,1.39-.94,2.83-1.92,4.48-2.63,1.29-.56,2.68-1.08,4.02-1.57,3.28-1.22,6.67-2.48,9.37-4.56,7.52-5.79,8.14-16.02,8.69-25.05.14-2.32.28-4.52.51-6.61.08-.62.63-3.15,1.26-6.08.76-3.53,1.9-8.83,1.95-9.63-.97-2-3.54-3.53-5.8-4.88-1.29-.77-2.5-1.49-3.43-2.27-.57-.5-1.22-1.08-1.95-1.71-5.11-4.52-13.66-12.09-18.45-13.28-1.66-.41-4.33.34-6.48.95-.76.22-1.49.42-2.09.55-7.33,1.48-15.48,2.73-25.65,3.91-9.73,1.23-18.04,1.8-26.16,1.8-.94,0-2.06-.13-3.24-.27-2.43-.29-5.19-.61-6.84.22-2.16,1.14-4.38,4.66-6.52,8.08-1.66,2.64-3.22,5.13-4.77,6.55-2.86,2.62-11.4,11.62-11.95,14.33-.12.94,2.15,5.14,3.25,7.15.43.79.77,1.42.92,1.74.2.37.58,1.18,1.07,2.19,1.3,2.71,4.36,9.05,5.23,9.59,1.44.91,4.91.85,7.45.81,1.17-.02,2.18-.04,2.93.02,2.77.25,5.59.57,8.31.88,5.1.58,10.37,1.19,15.56,1.32.83.04,2.15-.15,3.54-.35,2.53-.36,5.14-.73,6.46-.1.42.21.83.73,1.29,1.33.33.43.71.92.99,1.11,1.43,1.11,2.81,2.29,4.15,3.42,2.09,1.77,4.24,3.6,6.54,5.17.65.45,2.75,2.35,5.42,4.76,3.24,2.93,8.01,7.25,9.31,8.05Z"/><path class="cls-1" d="M121.16,48.33c0,.08-.04.16-.11.21-.61.41-8.64-6.66-8.71-6.73-2.52-2.52-4.77-6.05-6.16-9.69-.38-.98-.56-1.96-.73-2.9-.29-1.57-.57-3.05-1.72-4.32-1.39-1.68-3.46-3.41-5.64-5.24-3.07-2.58-6.24-5.24-7.5-7.81-.06-.12,0-.27.12-.33.12-.06.27,0,.33.11,1.21,2.48,4.34,5.11,7.37,7.65,2.2,1.85,4.28,3.59,5.7,5.3,1.24,1.37,1.53,2.92,1.83,4.56.17.92.35,1.87.71,2.81,1.35,3.52,3.61,7.08,6.04,9.51.99.99,7.47,6.33,8.21,6.63.08,0,.17.04.22.11.03.04.04.09.04.14Z"/><path class="cls-1" d="M120.46,56.93s0,.07-.02.11c-.06.12-.21.18-.33.12-1.09-.51-1.92-1.83-2.72-3.11-.52-.83-1.01-1.61-1.55-2.14-5.83-5.93-9.55-13.37-13.15-20.56-1.04-2.13-3.87-2.37-6.62-2.6-1.82-.15-3.55-.3-4.69-1-1.1-.68-1.77-2.72-2.26-4.22-.13-.39-.24-.74-.34-1.01-1.06-2.72-4.52-12.16-4.52-19.19,0-.14.11-.25.25-.25s.25.11.25.25c0,6.95,3.43,16.31,4.48,19.01.11.28.22.64.35,1.03.46,1.42,1.1,3.36,2.04,3.94,1.04.63,2.71.77,4.47.92,2.75.23,5.86.5,7.02,2.88,3.58,7.16,7.28,14.56,13.05,20.43.57.57,1.08,1.38,1.61,2.23.76,1.21,1.55,2.47,2.51,2.92.09.04.14.13.14.23Z"/><path class="cls-1" d="M118.66,60.73c0,.08-.03.15-.1.2-.11.08-.27.06-.35-.05-1.41-1.87-2.65-4.58-3.97-7.46-1.84-4.03-3.75-8.2-6.18-9.99-4.4-3.36-9.46-6.35-14.35-9.23-1.22-.72-2.43-1.44-3.63-2.15-.59-.33-1.55-.55-2.48-.76-1.23-.28-2.5-.57-3.16-1.17-1.24-1.24-1.1-4.81-1.01-7.17.02-.48.03-.89.03-1.21,0-3.03-.25-6.12-.5-9.1-.25-3.03-.5-6.17-.5-9.3,0-.14.11-.25.25-.25s.25.11.25.25c0,3.1.25,6.23.5,9.25.25,3,.5,6.1.5,9.15,0,.32-.02.74-.03,1.23-.08,2.14-.21,5.72.86,6.79.55.5,1.76.78,2.93,1.04,1.01.23,1.97.45,2.62.82,1.2.72,2.41,1.43,3.63,2.15,4.91,2.9,9.98,5.89,14.4,9.27,2.53,1.87,4.46,6.09,6.33,10.18,1.3,2.85,2.54,5.54,3.91,7.37.03.05.05.1.05.15Z"/><path class="cls-1" d="M103.66,74.93c0,.06-.02.13-.07.18-.1.1-.26.1-.35,0-.28-.28-.7-.87-1.18-1.55-.74-1.04-1.97-2.78-2.44-2.78s-1.24.54-1.93,1.01c-.56.38-1.08.74-1.49.87-1.06.47-2.18.71-3.26.94-1.46.31-2.97.63-4.38,1.54-.32.2-.73.54-1.16.9-1.08.91-2.31,1.94-3.38,1.94-.97,0-2.11-.66-3.22-1.3-.58-.33-1.12-.65-1.57-.82-1.03-.38-2.11-.76-3.23-1.14-3.03-1.06-6.16-2.15-8.8-3.46-.12-.06-.17-.21-.11-.34.06-.12.21-.17.33-.11,2.61,1.3,5.72,2.39,8.74,3.44,1.11.39,2.21.77,3.24,1.15.49.19,1.05.51,1.64.85,1,.58,2.14,1.23,2.97,1.23.88,0,2.09-1.01,3.06-1.82.44-.37.86-.72,1.21-.94,1.48-.95,3.04-1.28,4.54-1.6,1.11-.24,2.16-.46,3.19-.91.36-.12.88-.48,1.39-.82.79-.54,1.61-1.1,2.21-1.1.68,0,1.57,1.18,2.85,2.99.45.63.87,1.23,1.13,1.48.05.05.07.11.07.18Z"/><path class="cls-1" d="M91.06,73.63s-.01.09-.04.13c-.07.12-.23.15-.34.08-.86-.55-1.58-1.42-2.28-2.27-.9-1.1-1.75-2.13-2.87-2.5-2.22-.76-4.72-.97-7.14-1.17-1.68-.14-3.42-.29-5.03-.62-1.25-.24-2.5-.53-3.71-.8-3.37-.77-6.54-1.49-9.94-1.49-.14,0-.25-.11-.25-.25s.11-.25.25-.25c3.46,0,6.81.76,10.05,1.5,1.21.27,2.45.56,3.69.8,1.58.32,3.31.47,4.98.61,2.45.21,4.98.42,7.26,1.2,1.25.42,2.19,1.56,3.09,2.66.67.82,1.37,1.66,2.16,2.17.08.05.12.13.12.21Z"/><path class="cls-1" d="M52.46,6.93c0,.81-1.82,1.04-5.65,1.22-.82.04-1.54.07-1.74.12-1.12.32-2.27.66-3.43,1-3.88,1.14-7.88,2.32-11.73,3.09-.25.36-1.04,2.57-1.68,4.36-.91,2.53-1.84,5.15-2.32,5.84-.52.74-2.58.78-5.21.76-.89,0-1.67-.01-2.05.05-.39.07-.78.13-1.17.2-1.21.19-2.36.37-3.46.88-.19.09-.42.21-.67.35-1.35.71-3.4,1.78-4.64,1.78-.14,0-.25-.11-.25-.25s.11-.25.25-.25c1.11,0,3.09-1.04,4.4-1.72.26-.13.49-.26.68-.35,1.17-.55,2.4-.74,3.6-.93.39-.06.78-.12,1.17-.19.44-.07,1.23-.06,2.14-.05,1.64.01,4.4.03,4.8-.54.44-.63,1.41-3.34,2.26-5.73,1.56-4.36,1.72-4.68,2.04-4.68,3.79-.76,7.81-1.95,11.69-3.09,1.16-.34,2.31-.68,3.44-1,.25-.06.83-.09,1.85-.14,1.36-.06,4.99-.24,5.17-.73,0-.14.11-.25.25-.25s.25.11.25.25Z"/></g></g></svg>