<?xml version="1.0" encoding="UTF-8"?><svg id="Layer_2" xmlns="http://www.w3.org/2000/svg" viewBox="0 0 36.6 34.8"><defs><style>.cls-1{fill:#020202;}.cls-2{fill:#fff;}</style></defs><g id="Layer_5"><g id="Layer_3"><path class="cls-2" d="M4.63,9C2.43,10.1.23,15,.53,17.6c.3,2.6,2.5,5.2,2.8,8,.2,1.4-.2,6.6,1.4,7.3,8.6,3.4,17.7,0,26.1-3.1,5.8-2.2,4.7-16.2,5.2-21.6,0-1.3.5-6.7-1.1-7.4-2.2-1-6.5.8-8.5,1.4-7.2,2.2-15.2,3.4-21.8,6.8h0Z"/><path class="cls-1" d="M36.6,5.38c0,.66-.02,1.34-.05,2-.01.34-.02.62-.02.82-.1,1.12-.14,2.52-.18,4.16-.17,6.77-.4,16.04-5.35,17.91l-.16.06c-8.24,3.04-17.58,6.49-26.3,3.04-1.4-.61-1.57-3.15-1.64-6.15-.02-.66-.03-1.23-.07-1.54-.15-1.37-.79-2.72-1.4-4.03-.61-1.3-1.24-2.63-1.4-3.99-.3-2.7,1.9-7.86,4.37-9.1,4.54-2.34,9.76-3.65,14.82-4.93,2.35-.59,4.77-1.2,7.06-1.9.34-.1.74-.24,1.18-.38,2.39-.8,5.67-1.91,7.67-.99,1.2.53,1.46,2.67,1.46,5.04ZM35.53,8.11c0-.16.01-.44.02-.77.05-1.39.22-5.63-.83-6.09-1.66-.75-4.84.32-6.95,1.03-.46.15-.87.29-1.21.39-2.31.71-4.75,1.32-7.11,1.92-5,1.26-10.17,2.56-14.61,4.85,0,0,0,0,0,0-1.93.97-4.12,5.58-3.83,8.1.14,1.19.71,2.39,1.31,3.67.65,1.38,1.33,2.81,1.49,4.33.05.36.06.92.08,1.64.04,1.58.11,4.85,1.02,5.25,8.35,3.3,17.11.07,25.57-3.05l.16-.06c4.31-1.64,4.54-10.88,4.7-17,.04-1.65.08-3.07.18-4.18v-.04Z"/><path class="cls-1" d="M35.48,1.3s-.01.09-.04.14c-.37.56-.79,1.14-1.23,1.76-1.1,1.53-2.35,3.25-2.84,4.87-.25.87-.27,1.82-.28,2.74-.01.84-.02,1.72-.22,2.54-.21.93-.62,2.02-1.06,3.17-.76,2.02-1.63,4.31-1.44,5.94.07.85.71,1.79,1.27,2.61.26.39.51.75.7,1.1.52,1.04.84,1.18,2,1.67l.28.12c.13.06.18.2.13.33-.05.13-.2.19-.33.13l-.28-.12c-1.2-.51-1.65-.7-2.25-1.9-.17-.32-.42-.67-.67-1.05-.6-.88-1.28-1.88-1.35-2.85-.2-1.74.65-3.99,1.46-6.16.43-1.14.83-2.21,1.04-3.11.18-.77.19-1.58.2-2.44.01-.96.03-1.94.3-2.88.52-1.7,1.79-3.47,2.91-5.02.44-.61.86-1.19,1.22-1.74.08-.12.23-.15.35-.07.07.05.11.13.11.21Z"/><path class="cls-1" d="M31.48,7.6s-.01.09-.04.14c-1.97,3.07-5.9,11.84-4.97,14.79.26.83.89,1.74,1.55,2.7,1.06,1.55,2.16,3.15,1.96,4.7-.02.14-.14.23-.28.22-.14-.02-.23-.15-.22-.28.17-1.37-.87-2.89-1.88-4.36-.68-1-1.33-1.94-1.61-2.83-1.01-3.23,3.12-12.24,5.03-15.21.07-.12.23-.15.34-.08.08.05.12.13.12.21Z"/><path class="cls-1" d="M26.07,21.8c0,.1-.06.2-.16.23-1.7.64-3.71.73-5.66.81-2.33.1-4.74.2-6.61,1.27-.63.34-.98.94-1.34,1.58-.23.4-.47.81-.79,1.17-.34.39-.68.82-1.02,1.25-.88,1.08-1.78,2.21-2.8,3.08-.84.63-3.18,1.41-3.28,1.45-.13.04-.27-.03-.32-.16-.04-.13.03-.27.16-.32.02,0,2.37-.79,3.13-1.36.97-.83,1.86-1.94,2.72-3,.35-.43.69-.86,1.04-1.26.29-.33.51-.7.74-1.1.39-.67.79-1.35,1.53-1.76,1.97-1.13,4.44-1.23,6.83-1.33,1.9-.08,3.87-.16,5.5-.78.13-.05.27.02.32.15.01.03.02.06.02.09Z"/><path class="cls-1" d="M26.07,21.4c0,.06-.02.12-.06.16-1.08,1.26-3.59,1.17-5.43,1.11-.35-.01-.68-.02-.96-.02-1.39,0-3.13.24-4.98.5-4.58.63-9.77,1.35-12.68-1.05-.11-.09-.12-.25-.03-.35.09-.11.25-.12.35-.03,2.74,2.26,7.82,1.56,12.29.94,1.86-.26,3.62-.5,5.05-.5.29,0,.62.01.97.02,1.74.06,4.11.14,5.04-.94.09-.1.25-.12.35-.03.06.05.09.12.09.19Z"/><path class="cls-1" d="M13.98,23.1c0,.12-.08.22-.2.24-4.64.95-11.4-2.93-12.69-7.27-.16-.54,0-1.12.16-1.67.17-.57.32-1.12.14-1.62-.04-.13.02-.27.15-.32.13-.05.27.02.32.15.24.66.05,1.3-.13,1.93-.15.51-.28.98-.16,1.39,1.23,4.14,7.68,7.83,12.11,6.93.13-.03.27.06.29.19,0,.02,0,.03,0,.05Z"/></g></g></svg>