<?xml version="1.0" encoding="UTF-8"?><svg id="Layer_2" xmlns="http://www.w3.org/2000/svg" viewBox="0 0 36 36"><defs><style>.cls-1{fill:#090909;}</style></defs><g id="Layer_1-2"><path class="cls-1" d="M31.8,6.7c2.83,2.89,3.68,6.59,4.2,10.32v-3.88c-1.42-5.3-5.08-9.19-10.44-11.7C20.62-.87,14.86-.25,9.99,2.2c-1.43.72-2.65,1.42-3.84,2.42-1.17.99-2.42,1.95-3.2,3.24C1.45,10.36.52,12.99.14,15.88c-.72,5.46,1.31,11.6,5.65,15.36,6.71,5.8,18.15,6.63,24.72.66,2.63-2.39,4.26-5.45,5.49-8.57v-2.91c-.65,3.34-2.03,6.47-4.24,9.43-2.53-.08-4.88-1.08-6.96-2.28l3.55-1.08c2.37-.72,4.79-1.38,6.39-3.13l-3.36,1.47c-2.26.99-4.98,2.15-7.53,1.83-1.77-1-3.53-2.14-5.72-2.6l.37-2.77.03-1.66c1.6-.52,2.78-1.36,3.66-2.65l1.91-2.8c2.72-.64,5.31-1.62,6.85-3.93-1.07.2-1.68.91-2.56,1.5-1.14.75-2.72,1.27-4,1.71.46-1.22.69-2.22.79-3.41l.43-5.17c-.6.37-.45.67-.54,1.26l-.91,5.77c-.24,1.52-1.26,3.12-2.17,4.38-1,1.39-2.6,2.27-3.97,2.86-2.04-1.43-3.76-2.61-4.9-4.55l1.06-4.69c1.15-1.03,2-2.23,2.53-3.74.32-.92.8-1.76.61-2.79l-3.04,5.59-.16.99s.03-.03.05-.05c-.91,1.21-1.2,2.34-1.7,3.83-1.83-1.99-2.71-4.42-3.28-7.04l-.66-3.04c1.96-1.02,4.12-2.31,6.48-2.69,7.17-1.13,11.98.82,16.79,5.74ZM23.52,27.41c2.24,1.77,4.71,2.56,7.75,2.9-4.33,4.92-12.29,6.39-18.44,4.07l.92-1.16c2.01-2.52,3.17-5.42,4.15-8.43,2.19.3,4,1.34,5.61,2.61ZM16.57,25.61c-.33,1.25-.63,2.29-1.41,3.45-1.14,1.69-1.98,3.28-3.52,4.81-4.43-1.49-7.67-4.71-9.57-8.91,1.81-1.97,3.95-3.53,6.44-4.82,2.93,1.07,5.93,1.07,8.84-.01.34,2-.31,3.67-.78,5.49ZM12.22,14.67c1.12,2.03,2.77,3.43,4.88,4.76-4.36,1.27-5.57,1.26-9.09-.25l-3.99-1.71c-.64-.27-1.07-.59-1.76-.07l3.06,1.24,2.45,1.18-2.87,1.99-2.99,2.56C-.69,18.24.64,11.29,5.24,6.15c1.32.61,3.09,1.47,3.8,2.76l3.18,5.77ZM8.81,7.62l-3.08-1.78,2.55-2.07.54,3.85Z"/></g></svg>