<?xml version="1.0" encoding="UTF-8"?><svg id="Layer_2" xmlns="http://www.w3.org/2000/svg" viewBox="0 0 36 36"><defs><style>.cls-1{fill:#030303;}</style></defs><g id="Layer_1-2"><path class="cls-1" d="M30.79,4.95c-1.15-.96-2.31-1.96-3.68-2.58-2.84-1.27-5.78-1.79-8.85-2.26-1.38-.21-2.47-.13-3.77.32-3.78,1.29-7.1,1.88-9.74,5.09C2.95,7.7,1.14,9.89.48,12.63c-.33,1.34-.36,2.82-.44,4.26-.3,5.04,1.28,9.91,5.01,13.68,2.95,2.98,7.13,4.96,11.52,5.37,4.75.44,10.29-1.57,13.83-4.68,3.58-3.15,5.26-7.3,5.61-11.81v-3.79c-.36-4.1-1.9-7.96-5.21-10.72ZM30.94,5.94c1.56,1.66,2.69,3.12,3.5,5.2-1.04.92-2.17,1.78-3.44,2.34-1.95.85-3,1.94-4.19,3.64-.63.9-2.39,1.48-3.5,1.95-.78.33-1.62.11-2.34-.12l-2.57-.83c1.91-1.49.96-3.38,2.27-4.47l2.13-1.76c.99-.82,1.38-2.26,2.36-3.14.88-.79,2.3-1.2,3.38-1.7l2.39-1.11ZM7.39,4.04l1.68-1c2.18-1.31,4.94-2.26,7.63-2.32,3.26-.08,6.41.86,9.39,1.88,1.85.63,3.28,1.86,4.6,3.05l-5.21,2.28,1.99-4.43-.38.03-3.03,5.82c-.72,1.39-2.08,2.47-3.24,3.39l-.51-2.99-.09-2.98-.96-4.64c-.85,1.52.43,2.94.36,4.35-.07,1.56-.15,2.87.37,4.38.4,1.18.3,2.56-.42,3.7l-2.09,3.3c-.84-1.73-1.84-2.36-3.42-2.68-1.82-.36-2.36-2.11-2.72-3.5-.59-2.29-1.36-4.36-2.26-6.64-.14,1.73.64,3.31,1.27,5.01l.58,2.46-6.19-2.58.03.34.72.6-3.27-.8c1.47-2.37,2.94-4.44,5.17-6.02ZM.84,14.18c.08-1.3.64-2.63,1.28-3.72,1.74.7,2.93.78,4.68.86l3.24,1.35c.7.29,1.34,1.17,1.94,1.83-1.81.5-3.27,1.15-4.66,2.21-2.29.39-4.31.83-6.75,1.65l.26-4.19ZM.53,18.8l2.67-.75,2.96-.56c2.78-.52,3.67-2.32,6.51-2.48l1.5.75c1.5.75,2.85,2.21,1.87,3.75-.59.93-1.26,1.69-1,3.04l-3.9,2.13-3.69-.51c-.75-.1-2.15.22-2.88.06l-3.15-.69-.89-4.73ZM1.64,23.87l2.71.76-2.22.67-.49-1.43ZM2.31,25.67c3.19-.9,5.07-1.2,8.18-.43-.7,1.49-1.57,2.82-3,3.77-.09.72-.43,1.38-1.31,1.91-1.58-1.62-2.76-3.22-3.87-5.25ZM6.64,31.28c.57-.78,1.1-1.66,1.73-2.19,1.31-1.12,2.11-2.34,2.94-3.84l3.56-1.78,1.25,2.77c.51,1.12.59,2.1.15,3.24-.76,1.95-.24,3.51-1.46,5.67-3.16-.71-5.73-2.03-8.17-3.85ZM19.73,35.27c-1.38.27-2.88.17-4.34-.1l1.31-4.86.53-2.1,2.3,1.77c.71,1.84,1.46,3.18,2.69,4.81l-2.49.48ZM22.67,34.65c-1.32-1.63-1.96-3.19-2.83-5.01-.4-.84-1.89-1.47-2.67-2.03l-1.01-2.84c-.34-.95-.77-2.37-.21-3.22l1.14-1.73,1.58-.64,1.99.36c1.1.2,1.85.19,2.6,1.01.97,1.06,2.51,2.19,3.15,3.41.71,1.34,1.07,2.41,2.15,3.45.76.74,1.09,1.87,2.13,2.45l-1.89-2.9c-.61-.93-1.11-1.56-1.56-2.79l2.93.76,3.54.93c-2.34,4.59-5.65,7.23-11.03,8.78ZM33.86,25.72l-3.92-1.42-3.18-.97-3.56-3.56c.8-.22,1.46-.47,2.12-.9,1.8-1.17,1.94-1.55,5.05-1.24,1.15.11,2.04.51,3.27-.12l-2.46-.22-3.47-.25c.47-.64,1.2-1.86,2.03-2.33,1.79-1.01,3.38-1.91,4.83-3.2,1.32,4.81,1.12,9.57-.72,14.22Z"/></g></svg>