<?xml version="1.0" encoding="UTF-8"?><svg id="Layer_2" xmlns="http://www.w3.org/2000/svg" viewBox="0 0 36 36"><defs><style>.cls-1{fill:#040404;}</style></defs><g id="Layer_1-2"><path class="cls-1" d="M28.75,3.23C25.96,1.3,22.82.22,19.48.03c-3.71-.21-6.79.7-9.91,2.37-2.65,1.42-4.81,2.89-6.49,5.43C-1.48,14.75-1.02,23.96,4.75,30.18c3.3,3.55,8.05,5.49,12.91,5.78,4.78.29,8.97-1.18,12.42-4.35,4.12-3.79,6.04-8.7,5.92-14.09-.13-5.61-2.45-11-7.24-14.29ZM11.07,33.81C1.27,29.59-2.33,17.85,3.16,8.79c1.74-2.87,4.38-4.8,7.41-6.36,1.81-.93,3.53-1.55,5.59-1.77,4.2-.45,8.37.22,11.78,2.67-3.22,4.68-6.53,9.04-10.08,13.39-.59.72-1.46,1.5-2.45.91l-10.47-6.27c-.5-.3-.85-.51-1.47-.16l2.95,1.8,8.76,5.01c.93.53,1.33,1.79,1.67,2.7l3.62,9.73,1.7,4.61c-3.8.94-7.57.29-11.11-1.24ZM22.9,34.92l-.82-2.02c-1.82-4.49-3.61-8.86-5.09-13.49l.74-1.62,7.67-10.13,3-4.05c8.37,6.09,9.25,18.87,2.52,26.3-2.17,2.4-4.66,4.08-8.04,5Z"/></g></svg>