<?xml version="1.0" encoding="UTF-8"?><svg id="Layer_2" xmlns="http://www.w3.org/2000/svg" viewBox="0 0 36 36"><defs><style>.cls-1{fill:#0b0b0b;}</style></defs><g id="Layer_1-2"><path class="cls-1" d="M34.9,15c.54-2.3,0-4.52-2.35-5.34,0-1.32-.31-2.43-1.04-3.46-.73-1.03-2.79-.48-3.21-1.84-.49-1.58-1.88-2.37-3.32-2.57-.2-.03-.7-.46-.85-.35l-.65.46c-1.49-1.89-4.26-2.74-6.25-.79,1.32.36,2.15-1.05,3.84.16.77.55,1.9,1.2,2.84,1.18,3.46-.1,3.11,3.15,4.45,3.24,3.48.25,2.71,3.37,4.01,4.41.93.75,1.53,1.3,1.61,2.46l.12,1.88,1.02,2.26-.74,3.57.38,2.29c.08.48-.91,1.21-1.24,1.55-.24.49-.64,1.54-.73,2.05.07,2-1.21,3.52-3.07,4.13l-.07,1.13c-.04.55-1.87.06-2.3.67-.4,1.32-1.99,2.52-3.65,1.85-.71-.29-1.35,0-1.84.65-.43.57-2.01,1.17-2.67.88l-2.78-1.23-2.05.77c-1.41-.09-2.55-.97-3.42-1.93-.93-1.02-2.83-.1-3.29-2.13-1.61-.45-2.93-1.31-3.4-3.04-.66-2.47-3.6-3-2.78-6.4.16-.66.43-2.06.11-2.63-.45-.73-1.07-1.53-1.07-2.29,0-.84.56-1.58,1.13-2.24l.86-.99c-.13-1.13-.25-2.87.7-3.56l1.96-1.41c.21-3.04,2-4.03,5.12-4.78.1-.14.05-.27-.26-.6-1.63.57-2.91,1.05-4.3,1.9-1.46.89-.39,3.3-1.76,3.77-1.91.66-2.36,2.16-2.66,3.86l-.83,2C.04,15.7-.02,16.53,0,17.74l.04,1.7c2.21,2.85-1.14,4.68,2.93,7.6,1.58,1.14,1.08,4.74,4.38,4.76l1.74,2.12c.27.33,1.24.36,1.8.27,1.03,1.63,3.22,2.13,4.93,1.18l2.35.32c1.29.18,2.14.6,3.39.02l1.47-.68c2.15-.02,4.1-.73,4.89-2.7.22.2.57.51.82.5.24,0,.87-.33,1.03-.52l1.47-1.78c3.01-1.53,1.29-4,2.6-4.88,1.21-.81,1.88-2.24,1.38-3.76-.74-2.28,2.34-3.02-.31-6.88Z"/><path class="cls-1" d="M15.16,1l1.94.13C16-.02,14.55,0,13.09.46c-1.08.34-2.25,1.16-2.43,2.72l2.18-1.52c.62-.43,1.54-.71,2.32-.66Z"/><path class="cls-1" d="M18.1,19.27c.31-.08.54-.72.52-1.11-.02-.31-.6-.65-1.04-.6-.43.05-.8.94-.62,1.29.14.28.81.5,1.15.41Z"/></g></svg>