<?xml version="1.0" encoding="UTF-8"?><svg id="Layer_2" xmlns="http://www.w3.org/2000/svg" viewBox="0 0 36 36"><defs><style>.cls-1{fill:#151515;}</style></defs><g id="Layer_1-2"><path class="cls-1" d="M28.3,2.94c-1.61-1.09-3.36-1.61-5.12-2.25-4.25-1.54-9.12-.25-13.32,1.42-1.3.52-2.2,1.21-3.26,2.09-1.69,1.4-3.29,2.65-4.33,4.68C-.42,14.12-.87,20.33,1.74,25.7c3.12,6.41,7.93,9.13,15.12,10.16,4.18.6,9.78-.85,12.99-3.74,8.54-7.71,8.33-22.49-1.55-29.19ZM30.38,30.81c-1.82,1.98-4.46,3.35-7.08,3.89l-1.55.32c-3.73.77-7.51.06-10.95-1.4-2.17-.92-4.14-2.09-5.61-3.87-1.24-1.5-2.42-3.02-3.15-4.78C-.05,19.94.08,14.62,2.5,9.73,4.76,5.15,10.41,1.75,15.52.98c2.18-.33,4.52-.15,6.69-.07,2.98,2.58,6.45,4.11,8.74,7.47,4.68,6.85,3.98,14.82-1.16,21.05-1.1,1.33-2.28,1.95-2.76,2.89,2.52-1.48,4.24-3.95,5.58-6.56.87-1.71,1.33-3.41,1.68-5.28,1.06-5.73-1.76-12.32-6.54-15.84l-4.23-3.12c8.82,2.61,13,10.93,11.61,19.49-.61,3.77-2.12,6.94-4.75,9.79Z"/><path class="cls-1" d="M17.72,17.04c-.45.16-.86.84-.69,1.15.16.3.86.62,1.15.49.28-.13.62-.67.59-.97-.02-.3-.74-.78-1.05-.67Z"/></g></svg>