<?xml version="1.0" encoding="UTF-8"?><svg id="Layer_2" xmlns="http://www.w3.org/2000/svg" viewBox="0 0 36 36"><defs><style>.cls-1{fill:#030303;}</style></defs><g id="Layer_1-2"><path class="cls-1" d="M35.77,19.93c-2.58-.74-5.04-1.12-7.64-1.71-.34-.08-.34-.53,0-.6,1.27-.27,2.5-.45,3.76-.92.34-.13.25-.6-.12-.6h-4.56c-.33-.01-.46-.41-.18-.58l3.32-1.97,4.62-3.01-.15-.2c-.09-.12-.26-.16-.4-.11l-8.06,3.07c-.32.12-.61-.24-.38-.48l3.23-3.52-.33-.33-4.28,2.88c-.29.19-.66-.11-.49-.4l.93-1.6,3.32-6.08c.08-.15.16-.39.18-.51.01-.08-.29-.18-.52-.27l-6.01,7.37c-.21.25-.65.09-.6-.23l.79-5.07c.02-.12-.04-.24-.15-.3l-.28-.17-2.14,5.12c-.13.3-.6.24-.64-.08L17.79.08c-.16-.05-.57-.14-.58,0l-.04.56-.3,4.1-.28,5.41c-.02.32-.48.41-.63.12-.81-1.52-1.56-3.01-2.44-4.53-.17-.3-.67-.16-.63.18.19,1.58.69,2.98,1.08,4.42.09.31-.34.52-.57.28l-6.1-6.37-.46-.47c-.1-.1-.53.14-.63.28l5.39,8.24c.18.27-.15.58-.45.43l-4.88-2.56c-.16-.09-.59.24-.47.35l.49.41,3.63,3.15c.25.22.03.6-.3.53-2.93-.61-5.58-1.51-8.59-1.89-.36-.05-.52.4-.21.58,2.75,1.5,5.64,2.31,8.44,3.66.29.14.21.55-.11.58l-6.19.68c-.1.18.28.63.51.65l5.22.5c.34.03.41.46.1.59L.48,23.22c-.23.09-.52.54-.47.77l9.86-2.05c.33-.07.55.31.3.52l-4.41,3.87.22.2c.11.09.27.11.39.05l5.25-2.69c.29-.15.61.14.46.42-1.41,2.49-3.18,4.67-4.29,7.3-.13.31.29.57.55.33,2.23-2.08,4.04-4.2,5.96-6.34.22-.24.64-.06.59.25-.31,1.69-.85,3.2-.9,4.93,0,.33.48.44.64.14.83-1.52,1.47-3,2.15-4.55.13-.29.59-.24.64.07l1.45,9.14c.06.14.37.52.46.39l.25-.38s.04-.09.05-.14l.64-9.21c.02-.3.46-.4.62-.13,1,1.59,1.86,3.02,2.97,4.49.2.26.65.1.61-.21-.24-1.94-1.27-3.56-1.74-5.47-.07-.28.29-.48.54-.3l8.04,6.05c.19-.2.4-.44.31-.53l-.4-.46-4.26-4.96-1.44-1.6c-.22-.24.04-.59.36-.49,1.65.51,3.09,1.36,4.9,1.72.34.07.55-.34.28-.54-1.4-1.08-2.8-1.97-4.17-2.86-.27-.18-.13-.57.2-.56,2.97.08,5.67.34,8.55.14.37-.03.43-.5.08-.6ZM27.19,25.98c.24.29-.16.66-.47.43l-2.72-1.99c-.19-.14-.16-.42.06-.52l.67-.3c.14-.06.3-.03.4.08.69.74,1.38,1.48,2.07,2.3ZM30.58,19.96l-1.46-.02c-1.52-.02-2.86-.41-4.48-.38-.33,0-.45.39-.19.56l2.71,1.73c.32.21.06.67-.31.54-1.1-.39-2.12-.85-3.29-1.31-.32-.13-.61.22-.4.47l.86,1.02c.19.23-.03.55-.33.49-.23-.04-.44.15-.39.36l.1.45-1.34-1.05c-.25-.2-.63.03-.54.32l.87,2.83c.11.35-.41.55-.61.24l-1.62-2.51c-.17-.26-.61-.16-.62.15-.1,2.05-.09,3.98-.21,6.04-.02.37-.61.4-.66.03l-.91-5.76c-.05-.31-.5-.36-.64-.08l-1.07,2.3c-.16.34-.7.19-.63-.17l.48-2.56c.06-.31-.37-.49-.59-.25-1.54,1.74-2.86,3.42-4.4,5.05-.26.28-.74-.03-.54-.35,1.12-1.89,2.39-3.6,3.65-5.59.17-.27-.15-.58-.45-.43l-2.53,1.31c-.34.18-.68-.25-.39-.49l2-1.71c.25-.21.04-.59-.29-.53-.58.1-1.08.25-1.67.41-1.53.41-3,.77-4.53,1.09-.4.08-.58-.44-.21-.59,1.81-.71,3.65-1.32,5.61-2.03.33-.12.26-.57-.09-.6l-1.6-.12-1.7-.13c-.4-.03-.41-.57-.01-.61,1.13-.12,2.26-.15,3.49-.33.33-.05.39-.47.08-.59-1.97-.76-3.87-1.47-5.78-2.27-.37-.15-.18-.67.21-.58,2.14.46,4.16,1.06,6.25,1.72l.71.22c.73.23-.94-1.07-2.44-2.35-.29-.25.04-.67.39-.5l2.13,1.07c.3.15.63-.17.44-.44-1.27-1.83-2.54-3.47-3.66-5.31-.19-.32.28-.63.54-.36,1.59,1.65,2.92,3.65,4.48,5.11.24.23.66,0,.56-.31l-1.51-4.61c-.02-.06-.02-.12,0-.18l.1-.3,2.38,4.82c.13.26.56.23.63-.05.22-.9-.02-1.7.03-2.6l.17-2.92c.02-.38.62-.39.66-.02l.58,5.08c.04.33.53.38.65.07l.81-2.12c.13-.35.71-.22.64.15l-.38,2.22c-.05.32.4.49.6.23,1.4-1.84,2.51-3.63,3.92-5.31.25-.29.75,0,.56.33-.86,1.54-1.91,2.92-2.73,4.49l-.56,1.08c-.15.29.22.57.5.38l1.51-1.02c.32-.22.71.18.45.45l-1.06,1.11c-.23.25.05.62.38.49l5.06-2c.37-.15.65.33.32.54-1.49.92-3.05,1.77-4.74,2.7-.3.16-.16.59.19.57l1.97-.08c.4-.02.49.51.1.6l-1.45.37c-.33.09-.32.53.02.6l5.32,1.08c.39.08.33.61-.08.61Z"/></g></svg>