<?xml version="1.0" encoding="UTF-8"?><svg id="Layer_2" xmlns="http://www.w3.org/2000/svg" viewBox="0 0 36 36"><defs><style>.cls-1{fill:#030303;}</style></defs><g id="Layer_1-2"><path class="cls-1" d="M35.67,17.87l-13.16-1.3c1.62-1.84,3.13-3.6,4.55-5.48,1.29-1.7,2.81-3.09,3.76-5.24-2.67,1.69-4.92,3.41-7.14,5.35l-3.82,3.32L18.69.28c-.12-.1-.35-.28-.33-.28.02,0-.2.16-.33.26l-1.61,14.1-3.25-2.82c-2.41-2.09-4.73-4.12-7.63-6.08,2.12,4.19,5.37,7.27,7.98,10.99l-8.56.68c-1.64.06-3.24-.07-4.96.66,4.59,1.13,9.1,1.53,13.76,2.06-2.85,3.2-5.49,6.52-8.13,9.96l-.35.45c-.07.09.27.29.46.4,3.73-2.69,7.27-5.43,10.68-8.45l1.96,13.37.46.42c.06.06.23-.23.31-.35l.34-5.98.5-7.53,1.22.98c3.26,2.63,6.65,4.96,10.46,7.07-1.22-2.2-2.88-3.6-4.35-5.29-1.55-1.79-3.14-3.41-4.84-5.1l13.04-1.26.48-.28c.07-.04-.2-.27-.31-.38ZM7.43,7.5l6.66,5.55c.8.67,1.44,1.52,1.99,2.36l1,1.53c.14.21.46.54.84.82l-.93-2.72c.39-4.11.69-7.96,1.35-12.11l.92,10.93c.11,1.32-.44,2.46-.7,3.93.94-1.68,1.72-3.14,3.23-4.37,2.23-1.82,4.33-3.54,6.79-5.28-1.99,2.91-4.12,5.4-6.42,8.01l-3.95,2.14-1.53-.83c-.7-.38-1.88-.65-2.42-1.26-2.5-2.83-4.71-5.61-6.83-8.69ZM12.16,19.16l-9.02-1.2c1.78-.4,3.35-.49,5.1-.58,3.44-.18,5.8-.81,9.19.97-1.7.81-3.43,1.06-5.27.81ZM7.44,28.58c1.94-2.66,5.19-7.15,7.27-8.6.85-.59,2-.87,3.03-1.25-1.69,4.05-6.51,7.14-10.3,9.85ZM29.31,28.07c-3.36-1.98-6.3-4.15-9.08-6.62l-1.7-2.46c-.09.9.54,1.68.67,2.44.12,2.22.05,4.36-.14,6.57l-.42,4.76c-.69-3.72-1.3-7.17-1.45-10.91-.04-1,.61-2.1,1.02-3.16l3.74,1.38c2.58,2.57,5.05,5.07,7.37,8ZM18.66,18.41l3.56-1.31c3.78.24,7.29.54,11.08,1.09-4.87.37-9.93,1.74-14.65.22Z"/></g></svg>