<?xml version="1.0" encoding="UTF-8"?><svg id="Layer_2" xmlns="http://www.w3.org/2000/svg" viewBox="0 0 37 37"><defs><style>.cls-1{fill:#020202;stroke:#000;stroke-miterlimit:10;}</style></defs><g id="Layer_1-2"><path class="cls-1" d="M18.57.51c-1.81-.23-1.76,4.27-.3,7.94,1.91-2.07,1.68-7.76.3-7.94Z"/><path class="cls-1" d="M30.84,5.74c-1.41-.53-3.71,2.25-4.16,4.82,3.8-.09,5.44-4.34,4.16-4.82Z"/><path class="cls-1" d="M9.65,11.11c.46-2.27-2.91-5.48-4.24-4.6-1.33.88.98,4.06,4.24,4.6Z"/><path class="cls-1" d="M30.46,18.92c2.67.91,5.58,1.03,6-.35.59-1.96-4.99-2.02-6,.35Z"/><path class="cls-1" d="M27.9,25.99c.37,2,3.3,4.23,4.8,3.74,1.68-.55-1.55-4.46-4.8-3.74Z"/><path class="cls-1" d="M.56,18.67c-.63,1.5,3.5,2.49,6.12.36-1.93-1.47-5.51-1.83-6.12-.36Z"/><path class="cls-1" d="M22.85,30.25c-.98,2.64.62,6.21,1.96,5.84,1.39-.38.46-4.46-1.96-5.84Z"/><path class="cls-1" d="M13.07,35.08c-.14.5.96,1.62,1.41,1.38,1.35-.73,2.28-4.24,1.1-5.92-1.33,1.4-2.01,2.77-2.5,4.54Z"/><path class="cls-1" d="M4.97,29.04c-.26.3-.11,1.32.2,1.49,1.34.76,3.17-1.2,4.57-3.44-1.85-1.18-3.81.86-4.77,1.95Z"/></g></svg>