<?xml version="1.0" encoding="UTF-8"?><svg id="Layer_2" xmlns="http://www.w3.org/2000/svg" viewBox="0 0 36 36"><defs><style>.cls-1{fill:#050505;}</style></defs><g id="Layer_1-2"><path class="cls-1" d="M22.61,22.01c-.11-.1-.68,0-.74.13-.04.09-.04.51.03.58l2.17,1.89,6.76,6.43c.19-.16.48-.54.52-.67l-6.43-6.06-2.3-2.29Z"/><path class="cls-1" d="M21.57,14.2l.59.14,7.37-10.77c0-.16-.04-.57-.15-.54l-.52.16-7.13,10.16c-.13.14-.36.8-.15.85Z"/><path class="cls-1" d="M14.93,14.2l.59-.46L8,2.36l-.55.39,6.91,10.84c.11.18.41.73.56.61Z"/><path class="cls-1" d="M18.31.04l-.25.46-.06,12.85.87-.14-.05-12.97c-.22-.15-.44-.31-.51-.2Z"/><path class="cls-1" d="M2.04,10.27l10.94,6.02.71-.16c.16-.04-.2-.56-.36-.65l-4.07-2.13-7.13-3.87-.38.42c-.06.07.21.29.3.37Z"/><path class="cls-1" d="M22.96,16.89c-.07.09.33.3.51.35l11.74-3.73c.12-.13.36-.46.24-.49l-.59-.16-11.47,3.44-.43.59Z"/><path class="cls-1" d="M13.58,21.45c-.17.02-.75.19-.9.3l-9.17,6.95.57.42,9.76-7.04c.04-.24-.09-.66-.26-.64Z"/><path class="cls-1" d="M23.91,18.77c-.14.03-.77.37-.63.47l.57.42,12.12,2.52.03-.68-12.09-2.73Z"/><path class="cls-1" d="M19.02,23.87l2.71,12.13.66-.1-2.18-10.75c-.16-.77-.13-1.53-1.19-1.28Z"/><path class="cls-1" d="M15.85,23.71l-.62-.07-4.95,11.09.63.29,4.9-10.56c.06-.14.19-.73.04-.75Z"/><path class="cls-1" d="M12.88,18.48l-12.88,1.51.04.81,11.45-1.47c.67-.09,1.48.28,1.39-.85Z"/></g></svg>