<?xml version="1.0" encoding="UTF-8"?><svg id="Layer_2" xmlns="http://www.w3.org/2000/svg" viewBox="0 0 36 36"><defs><style>.cls-1{fill:#070707;}</style></defs><g id="Layer_1-2"><path class="cls-1" d="M35.66,14.84C33.92,4.37,22.78-2.64,12.21.95,5.05,3.38.78,10.26.09,17.42c-.62,6.44,2.09,12.46,7.69,15.76,7.4,4.36,17.16,3.74,23.19-2.35,4.56-4.62,5.7-9.98,4.69-15.99ZM31.51,28.33c-3.5,4.64-9.35,7.18-15.48,6.33-5.95-.82-11.47-4.2-13.59-9.57C-.91,16.6,3.37,6.52,11.41,2.26l5.8-.83c6-.86,11.42,2.75,14.61,7.44,4.02,5.92,4.02,13.72-.31,19.47Z"/><path class="cls-1" d="M26.08,17.34l-3.11-1.61,1.71,3.08c-1.09.99-1.64,1.53-1.76,3l2.98-2.17,2.42,2.11.46-.95-2.01-2.01,2.22-2.94c-1.18.31-2.23,1-2.91,1.48Z"/><path class="cls-1" d="M11.55,15.41l-.69.63c-.28.25-1.06,1.18-1.34.94l-1.29-1.09c-.23-.19-1.01-.47-1.33-.57-.19-.06-.27.64-.14.79l.56.69,1.18,1.44c.26.32-1.11,1.03-1.29,1.4l-.56,1.08c-.09.17.59.48.73.36l.71-.64,1.39-1.24c.31-.28,1.08,1.04,1.44,1.24l1.13.6c.18.09.54-.62.39-.75l-.97-.87c-.33-.3-.96-1.22-.7-1.53l.9-1.1.87-1.06c.13-.16-.83-.45-.98-.31Z"/><path class="cls-1" d="M19.69,26.03c.23-.24.62-.71.43-.86-.13-.1-.57-.45-.58-.44-.01.02-.51.39-.71.54l-1.42,1.08c-.5.38-1.99-2.02-2.37-1.53-1.02,1.34,1.82,2.2,1.03,2.98l-1.52,1.5c-.47.42.38,1.23.84.8.87-.77,1.48-1.33,1.96-1.43.58-.12,2.55,2.41,2.68,1.6l.11-.69c.1-.59-2.1-1.83-1.82-2.12l1.37-1.44Z"/><polygon class="cls-1" points="19.97 6.43 17.9 8.2 14.77 6.3 16.64 9.39 14.72 11.49 15.21 12.27 17.63 10.29 20.7 12.25 18.76 9.22 20.78 6.86 19.97 6.43"/></g></svg>