<?xml version="1.0" encoding="UTF-8"?><svg id="Layer_2" xmlns="http://www.w3.org/2000/svg" viewBox="0 0 36 36"><defs><style>.cls-1{fill:#141414;}</style></defs><g id="Layer_1-2"><path class="cls-1" d="M29.69,4.25C25.74.84,19.38-.89,14.2.46,3.81,3.19-1.76,13.59.5,23.32c2.01,8.68,10.47,13.55,19.56,12.55,5.77-.64,10.78-3.25,13.71-8.67,4.06-7.49,2.53-17.24-4.07-22.95ZM18.91,34.78c-5.69.23-10.45-1.79-13.81-5.45C-2.74,20.79,2.15,6.02,12.39,2.28c.95-.35,3.27-.79,4.31-.89,9.2-.93,16.64,5.79,17.71,14.22,1.3,10.25-4.75,18.74-15.49,19.18Z"/><path class="cls-1" d="M25.88,10.05l-16.4,15.19c-.26.24-.46,1.19-.3,1.14l1.28-.43c4.92-5.67,11.79-9.89,15.42-15.9Z"/><path class="cls-1" d="M28.65,13.94l-14.51,13.35c-.38.35-.69,1.09-.75,1.34-.04.16.56.38.69.26l.64-.6,14.41-13.57-.48-.78Z"/><path class="cls-1" d="M21.66,8.09c-.04-.17-.56-.62-.68-.5l-.65.65-14.17,14.08c3.75-1.62,15.56-14,15.5-14.23Z"/><path class="cls-1" d="M29.13,20.24l-1.11.63c-2.58,2.57-7.21,5.29-8.9,8.8l9.58-8.18c.27-.23.61-1.35.43-1.24Z"/><polygon class="cls-1" points="15.96 7.96 15.65 7.09 6.35 15.62 7.19 16.24 15.96 7.96"/></g></svg>