<?xml version="1.0" encoding="UTF-8"?><svg id="Layer_2" xmlns="http://www.w3.org/2000/svg" viewBox="0 0 36 36"><defs><style>.cls-1{fill:#070707;}</style></defs><g id="Layer_1-2"><path class="cls-1" d="M35.09,21.41c-1.34-.87-2.1-2.49-1.88-4.05.2-1.38,1.41-2.31,2.78-3.38-1.91-.49-3.44-.8-4.23-2.19-.86-1.49-.44-3.15.59-4.74-1.67.2-3.01.61-4.26-.11-.98-.56-1.82-1.61-1.96-2.89l-.25-2.24c-1.29,1.05-2.29,1.96-3.67,1.83-3.6-.34-3.76-4.06-4.25-3.6-.6.56-1.05,3.71-4.16,3.76-1.24.02-2.25-.98-3.48-1.82-.25,1.35-.18,2.88-.84,3.82-.84,1.19-2.57,1.93-3.88,1.56-.76-.22-1.4-.31-1.95-.07.65,1.3,1.49,2.43,1.19,3.84-.17.82-.78,2.05-1.34,2.67-.88.99-2.04,1.21-3.51,1.78l1.7,1.27c2.38,2.12,1.62,5.55-1.21,7.54,2.2.27,3.88.34,4.87,1.7,1.96,2.68-.09,5.01.48,5.11.79.14,3.7-1.86,6.07.68.79.85,1.04,2.19,1.54,3.56l2.48-2.25,1.87,2.82c.98-.64.83-3.03,3.38-3.4,2.21-.32,3.61,2.14,3.76,1.72.45-1.21.17-2.69,1.43-4.05,1.97-2.15,5.49-.13,5.26-.84l-.18-.55c-.93-1.5-.84-3.06.13-4.48.83-1.2,2.11-2.01,4.01-2.11.06-.15-.24-.71-.5-.87ZM30.71,24.36c-.78,1.46-.71,2.98-.03,4.56-1.72-.32-3.09-.37-4.34.55-1.13.84-1.63,2.21-1.77,3.6-1.02-1.07-2.55-1.48-3.87-1.18-1.25.29-2.53,1.04-2.68,2.53l-1.92-2.14-2.13,1.52c-.27-.86-.89-2.43-1.76-3.01-1.72-1.16-3.51-1.1-5.57-.51.61-2.17.03-4.01-1.5-5.58l-1.79-.75c.31-.17,1.06-.64.88-.8l-.86-.81c.92-2.01.67-4.21-.89-5.83.3-.09.87-.22.84-.36l-.19-.92c2.34-1.66,3.12-4.5,1.69-7.23l2.53-.09c1.74-.06,2.63-1.28,3.33-2.54.89.39,1.82,0,2.22-.95,2.01.32,3.92-.42,4.91-2.39.04-.41.64-.24.66.12l-.73.78c-.19.2.34.9.6.8,1.77-1.04,2.64,2.26,6.73-.41l.18.65c.06.21-.45.5-.68.65-.75.48.5.37,1.56,1.86,1.06,1.48,3.25,1.65,5.09,1.36-.54,1.44-.87,2.78-.11,4.14.62,1.1,1.86,2.13,3.47,2.34l-1.69,1.23c-.56,1.83-.48,3.7.18,5.33l1.31.95c-1.78.55-3,1.35-3.64,2.55Z"/><path class="cls-1" d="M17.53,17.99c-.59.35-.66,1.12-.36,1.47.23.27,1.05.4,1.39.16.34-.24.62-.79.5-1.12-.15-.4-1.07-.79-1.53-.52Z"/></g></svg>