<?xml version="1.0" encoding="UTF-8"?><svg id="Layer_2" xmlns="http://www.w3.org/2000/svg" viewBox="0 0 36 36"><defs><style>.cls-1{fill:#131313;}</style></defs><g id="Layer_1-2"><path class="cls-1" d="M29.07,3.8C25.13.81,19.43-.72,14.48.33c-2.16.46-4.8,1.82-6.55,2.98C3.53,6.25,1.36,10.97.37,15.76c-2.14,10.38,5.2,19.43,16.53,20.19,8.34.56,15.62-4.02,18.08-11.53,2.42-7.38.56-15.69-5.91-20.62ZM30.85,29.06c-6.88,8.04-19.16,7.38-26.02-.16C.36,24,.3,17.35,2.86,11.45,5.3,5.83,9.96,2.02,16.01,1.35c6.15-.68,11.85,1.8,15.54,6.94,4.35,6.06,4.53,14.66-.7,20.76Z"/><path class="cls-1" d="M17.69,13.21l-.74,4.69-5.08.5c1.93,1.12,3.1,1.03,5.16,1.06l.61,4.41c1.56-1.27.13-4.36,1.1-4.35h1.52c.94.01,2.08-.3,3.11-.9l-5.02-.81c.07-1.93.16-3.11-.66-4.6Z"/></g></svg>