<?xml version="1.0" encoding="UTF-8"?><svg id="Layer_2" xmlns="http://www.w3.org/2000/svg" viewBox="0 0 36 36"><defs><style>.cls-1{fill:#070707;}</style></defs><g id="Layer_1-2"><path class="cls-1" d="M35.09,21.41c-1.34-.87-2.1-2.49-1.88-4.05.2-1.38,1.41-2.31,2.78-3.38-1.91-.49-3.44-.8-4.23-2.19-.86-1.49-.44-3.15.59-4.74-1.67.2-3.01.61-4.26-.11-.98-.56-1.82-1.61-1.96-2.89l-.25-2.24c-1.29,1.05-2.29,1.96-3.67,1.83-3.6-.34-3.76-4.06-4.25-3.6-.6.56-1.05,3.71-4.16,3.76-1.24.02-2.25-.98-3.48-1.82-.25,1.35-.18,2.88-.84,3.82-.84,1.19-2.57,1.93-3.88,1.56-.76-.22-1.4-.31-1.95-.07.65,1.3,1.49,2.43,1.19,3.84-.17.82-.78,2.05-1.34,2.67-.88.99-2.04,1.21-3.51,1.78l1.7,1.27c2.38,2.12,1.62,5.55-1.21,7.54,2.2.27,3.88.34,4.87,1.7,1.96,2.68-.09,5.01.48,5.11.79.14,3.7-1.86,6.07.68.79.85,1.04,2.19,1.54,3.56l2.48-2.25,1.87,2.82c.98-.64.83-3.03,3.38-3.4,2.21-.32,3.61,2.14,3.76,1.72.45-1.21.17-2.69,1.43-4.05,1.97-2.15,5.49-.13,5.26-.84l-.18-.55c-.93-1.5-.84-3.06.13-4.48.83-1.2,2.11-2.01,4.01-2.11.06-.15-.24-.71-.5-.87Z"/></g></svg>