<?xml version="1.0" encoding="UTF-8"?><svg id="Layer_2" xmlns="http://www.w3.org/2000/svg" viewBox="0 0 36 36"><defs><style>.cls-1{fill:#0b0b0b;}</style></defs><g id="Layer_1-2"><path class="cls-1" d="M34.13,24.47c-.56-.76-1.42-1.48-1.69-2.37-.24-.79.65-1.65,1.28-1.91l2.29-.93-1.57-.92c-.58-.34-1.78-1.15-1.63-1.93.22-1.19,1.45-1.94,2.42-2.9-1.07-.36-2.87-.53-3.41-1.34-.94-1.41.38-2.87,1.11-4.22-1.51.11-2.85.22-4.15,0-.36-1.13.07-2.18.22-3.31l.09-.64c.11-.82-2.15,1.22-4.04,1.02-.88-1.2-.92-2.48-1.09-3.98l-3.22,2.55c-1.62-1.12-2.23-4.14-2.55-3.5l-.21.41c-.59,1.17-1.06,1.94-2.04,2.89l-3.16-2.71c-.71.97-.07,2.68-1.46,4.07l-3.4-1.35c-.94.22.33,1.99-.25,3.94-1.48,1.12-3.16-.3-4.07.13-.49.23,1.83,2.78.79,4.17-.79,1.05-2.63.98-3.99,1.41.93,1.03,2.5,1.68,2.68,2.97.25,1.79-3.77,2.84-2.98,3.18l.66.28c.79.34,2.37.52,2.57,1.54.31,1.56-2.46,3.14-2.09,3.35,1.02.58,2.67-.22,3.83,1.06.1,1.16-.63,2.53-1.26,3.44l.28.42,3.6-.68c.48,1.51.1,2.36-.25,4.04,1.46-.7,2.55-1.51,4-1.47,1.11,1.67.53,4.07,1.03,3.78,1.05-.63,1.5-2.33,3.33-2.19.71.73,1.04,1.85,1.68,3.23l1.32-2.44c.17-.31,1.19-.85,1.42-.58l2.27,2.55.63-2.77c.1-.42.91-1.22,1.35-1.03.86.37,1.46.8,2.14,1.3l.51.37c.07.05.29-.27.35-.37-.2-.8-.54-2.47-.03-3.11,1.16-1.44,4.23.72,4.01.01l-.24-.73c-.34-1.04-1.11-2.23-.39-3.28.83-1.23,4.12-.33,3.67-.95l-.37-.51ZM29.93,25.59c-.6,1.01.02,2.25.43,3.4-1.25-.33-2.52-.63-3.39.11-.8.69-.56,1.82-.46,2.83-.69-.38-1.95-1.13-2.61-.99-1.43.31-1.53,1.87-1.76,2.99-.53-.61-1.43-1.76-2.31-1.81-1.21-.06-1.65,1.26-2.26,2.06-.54-.87-.98-2.16-2.1-2.28-.92-.1-1.89.98-2.54,1.54-.24-1.03-.12-2.48-1.31-2.93-.81-.31-2.15.35-3.02.68.21-1.01.48-2.43-.53-3.12-.69-.47-2.15.02-3.04.21.74-1.31,1.43-2.87.25-3.85-.5-.36-1.82-.51-2.59-.66.48-.6,1.45-1.66,1.52-2.39.14-1.47-1.27-1.96-2.64-2.38l1.72-1.38c.83-.67,1-1.74.23-2.58l-1.49-1.62c1.41-.4,2.95-.52,3.43-1.83.33-.9-.41-2.38-.84-3.25l3.41-.06c.74-1.17.5-2.39.26-3.94,1.2.56,2.3,1.17,3.8,1l1.04-3.37c.9.99,1.8,1.76,3.18,2.25l2-2.8c.52.92.87,2.47,2.17,2.73.91.09,2.03-1.05,2.87-1.74.21,1.03.46,2.44.98,3.32,1.43.25,2.53-.41,3.92-1.03-.33,1.3-.87,2.57-.1,3.85.88.31,2.3.27,3.4.2l-.91,1.93c-.5,1.07.17,2.17,1.25,2.53l1.9.63c-1.07.73-2.19,1.58-1.85,3,.21.88,1.45,1.65,2.41,2.33-1.38.44-2.9,1.11-2.8,2.72.06.88.97,1.94,1.57,2.66-1.08.07-2.66.06-3.22,1Z"/><path class="cls-1" d="M17.79,17.61c-.5.31-.75.99-.52,1.27.26.33,1.03.61,1.35.41.33-.2.54-.99.42-1.33-.1-.29-.97-.52-1.24-.36Z"/></g></svg>