<?xml version="1.0" encoding="UTF-8"?><svg id="Layer_2" xmlns="http://www.w3.org/2000/svg" viewBox="0 0 36 36"><defs><style>.cls-1{fill:#0b0b0b;}</style></defs><g id="Layer_1-2"><path class="cls-1" d="M34.13,24.47c-.56-.76-1.42-1.48-1.69-2.37-.24-.79.65-1.65,1.28-1.91l2.29-.93-1.57-.92c-.58-.34-1.78-1.15-1.63-1.93.22-1.19,1.45-1.94,2.42-2.9-1.07-.36-2.87-.53-3.41-1.34-.94-1.41.38-2.87,1.11-4.22-1.51.11-2.85.22-4.15,0-.36-1.13.07-2.18.22-3.31l.09-.64c.11-.82-2.15,1.22-4.04,1.02-.88-1.2-.92-2.48-1.09-3.98l-3.22,2.55c-1.62-1.12-2.23-4.14-2.55-3.5l-.21.41c-.59,1.17-1.06,1.94-2.04,2.89l-3.16-2.71c-.71.97-.07,2.68-1.46,4.07l-3.4-1.35c-.94.22.33,1.99-.25,3.94-1.48,1.12-3.16-.3-4.07.13-.49.23,1.83,2.78.79,4.17-.79,1.05-2.63.98-3.99,1.41.93,1.03,2.5,1.68,2.68,2.97.25,1.79-3.77,2.84-2.98,3.18l.66.28c.79.34,2.37.52,2.57,1.54.31,1.56-2.46,3.14-2.09,3.35,1.02.58,2.67-.22,3.83,1.06.1,1.16-.63,2.53-1.26,3.44l.28.42,3.6-.68c.48,1.51.1,2.36-.25,4.04,1.46-.7,2.55-1.51,4-1.47,1.11,1.67.53,4.07,1.03,3.78,1.05-.63,1.5-2.33,3.33-2.19.71.73,1.04,1.85,1.68,3.23l1.32-2.44c.17-.31,1.19-.85,1.42-.58l2.27,2.55.63-2.77c.1-.42.91-1.22,1.35-1.03.86.37,1.46.8,2.14,1.3l.51.37c.07.05.29-.27.35-.37-.2-.8-.54-2.47-.03-3.11,1.16-1.44,4.23.72,4.01.01l-.24-.73c-.34-1.04-1.11-2.23-.39-3.28.83-1.23,4.12-.33,3.67-.95l-.37-.51Z"/></g></svg>