<?xml version="1.0" encoding="UTF-8"?><svg id="Layer_2" xmlns="http://www.w3.org/2000/svg" viewBox="0 0 34.92 34.78"><defs><style>.cls-1{fill:#121212;}</style></defs><g id="Layer_1-2"><path class="cls-1" d="M32.43,26.97c-.49,1.15-1.7,2.35-3.39,2.82-3.54.97-6.12-2.1-8.86,2.37-1.14,1.86-3.56,2.85-5.55,2.57-2.41-.35-4.1-1.86-4.76-4.13-.44-1.5-2.05-2.32-3.69-2.22-2.82.17-5.44-1.36-6.05-4.03-.43-1.88.28-3.82,1.53-5.27,1.34-1.56,1.37-3.41.18-5.05-1.03-1.42-1.27-3.17-.43-4.76.71-1.33,2.35-2.5,4.18-2.52,1.78-.01,2.7-1.17,3.02-2.69.37-1.78,1.81-3.33,3.38-3.81,1.79-.54,4.15-.23,5.27,1.22,1.31,1.71,3.26,2.17,5.21,1,1.42-.86,3.19-.94,4.54-.1,3.8,2.36-.06,6.45,4.26,7.45,1.41.33,2.73,1.27,3.24,2.35.61,1.29.63,2.93-.34,4.06l-2.09,2.44c-2.11,2.48,1.95,4.51.35,8.3Z"/></g></svg>