<?xml version="1.0" encoding="UTF-8"?><svg id="Layer_2" xmlns="http://www.w3.org/2000/svg" viewBox="0 0 36 36"><defs><style>.cls-1{fill:#181818;}</style></defs><g id="Layer_1-2"><path class="cls-1" d="M34.38,19.42c1.05-1.19,1.58-2.54,1.62-4.13.09-3.17-2.03-5.73-5.37-6.25.38-2.04-.22-3.86-1.68-5.07-1.44-1.2-3.49-1.41-5.39-.84-.62-.85-1.44-1.79-2.27-2.02-1.02-.29-2.02.23-2.98.85C16.49.02,13.96-.48,11.46.46c-1.91.73-3.33,2.65-3.85,4.98-1.28-.13-2.65.1-3.2.94-.62.96-.67,2.08-.42,3.33-2.1.63-3.41,2.35-3.85,4.22-.49,2.06.22,4.1,2.24,5.5C-.5,22.72.06,27.82,3.87,30.24c1.62,1.03,3.48,1.14,5.22.9.38,1.88,1.73,3.3,3.16,3.9,2.04.86,3.94.19,5.58-.69,1.61,1.32,3.37,2.08,5.58,1.39,1.47-.46,2.89-1.61,3.49-3.43l2.06.23c2.41.26,4.28-1.61,5.18-3.07,1.17-1.98.86-3.98.19-6,1.04-1.22,1.06-2.84.05-4.03Z"/></g></svg>