<?xml version="1.0" encoding="UTF-8"?><svg id="Layer_2" xmlns="http://www.w3.org/2000/svg" viewBox="0 0 36 36"><defs><style>.cls-1{fill:#0f0f0f;}</style></defs><g id="Layer_1-2"><path class="cls-1" d="M28.58,6.94c-.13-1.88-1.16-3.31-2.58-4.05-1.55-.8-3.36-.61-4.78.21C19.92,1.4,18.23.23,16.16.03c-3.69-.35-6.56,2.13-7.54,5.97-1.09-.23-2.39-.24-3.56.23C.52,8.09-1.27,13.77,1.64,17.68.42,19.21-.02,20.84,0,22.7c.04,4.48,3.86,7.77,8.5,7,.36,3.84,3.36,6.21,7.06,6.3,3.04.07,5.58-1.34,6.92-4.12,4.57,1.86,8.12.81,10.58-3.19,1.45-2.36.6-5.1.1-7.21,1.78-1.72,2.65-3.78,2.82-6.33.3-4.43-2.63-8.18-7.4-8.21ZM31.94,21.16c2.66,3.8.95,8.32-2.67,10.13-2.32,1.16-4.67.98-7.16-.51-1.4,4-5.64,5.5-9.27,3.78-2.24-1.06-3.72-3.05-3.49-5.65l-2.16.19c-2.7.23-5.12-1.93-5.98-4.05-1.1-2.69-.4-5.54,1.7-7.47-2.17-1.91-2.48-4.51-1.4-6.96,1.41-3.2,4.45-4.77,8.04-3.55-.12-1.92.3-3.09,1.3-4.19,1.47-1.63,3.37-2.38,5.69-2.04,1.76.26,3.47,1.56,4.38,3.6,1.33-1.12,2.76-1.64,4.35-1.09,2.5.86,2.41,4.04,2.82,4.29.57.35,5.74-.4,6.99,5.28.69,3.15-.32,6.41-3.12,8.24Z"/><polygon class="cls-1" points="17.54 15.34 17.26 17.46 15.3 17.59 15.25 18.13 17.25 18.32 17.56 20.24 18.02 18.31 20.1 17.87 18.08 17.4 17.54 15.34"/></g></svg>