<?xml version="1.0" encoding="UTF-8"?><svg id="Layer_2" xmlns="http://www.w3.org/2000/svg" viewBox="0 0 36 36"><defs><style>.cls-1{fill:#1c1c1c;}</style></defs><g id="Layer_1-2"><path class="cls-1" d="M33.83,12.76c-.95-.73-1.64-1.35-1.43-2.74.42-2.83-1.69-5.44-4.73-5.65-1.54-.1-1.85-.64-2.51-1.81-1.81-3.21-6.37-3.25-9.09-.98-.94.63-2.35-.09-3.4-.24C7.83.61,3.23,4.65,3.79,9.31c.22,1.86.19,3.09-1.36,4.3-3.11,2.43-3.51,8.3.4,10.74,1.16.72,2.04,1.91,1.93,3.33-.26,3.4,1.76,6.08,5.06,7.05,2.05.6,3.95.55,5.96-.33,2.51-1.1,4.08,2.73,8.51,1.26,3.26-1.09,3.08-4.21,4.76-4.48,3.07-.49,5.09-2.97,4.75-5.98l-.33-2.97c3.07-2.48,3.53-7.02.36-9.47ZM32.84,23.63c1.02,2.91-.48,6.15-3.72,6.75-2.83.53-1.71,3.25-4.82,4.46-3.94,1.53-5.92-2.2-8.44-1.18-2.71,1.1-5.6,1.02-7.99-.7-3.79-2.73-1.67-7.13-3.73-8.48-2.27-1.48-3.95-3.74-3.44-6.44.85-4.47,4.77-4.04,3.82-8.28-.54-2.42.61-4.65,2.37-6.09,1.9-1.55,4.3-2.08,6.8-1.31,3.14.97,4.27-2.65,8.14-1.48,1.57.47,2.69,1.63,3.4,3.46.24.61,1.75.73,2.51.79,2.65.2,4.34,2.78,3.98,5.16-.25,1.64.42,2.15,1.63,3.01,2.55,1.83,2.37,5.68.18,7.83-.75.74-1.05,1.49-.69,2.51Z"/><polygon class="cls-1" points="17.83 16.3 17.37 18.14 15.41 18.59 17.41 18.99 17.7 20.57 18.13 20.29 18.21 19.04 20.1 18.49 18.31 18.14 17.83 16.3"/></g></svg>