<?xml version="1.0" encoding="UTF-8"?><svg id="Layer_2" xmlns="http://www.w3.org/2000/svg" viewBox="0 0 36 36"><defs><style>.cls-1{fill:#0f0f0f;}</style></defs><g id="Layer_1-2"><path class="cls-1" d="M28.58,6.94c-.13-1.88-1.16-3.31-2.58-4.05-1.55-.8-3.36-.61-4.78.21C19.92,1.4,18.23.23,16.16.03c-3.69-.35-6.56,2.13-7.54,5.97-1.09-.23-2.39-.24-3.56.23C.52,8.09-1.27,13.77,1.64,17.68.42,19.21-.02,20.84,0,22.7c.04,4.48,3.86,7.77,8.5,7,.36,3.84,3.36,6.21,7.06,6.3,3.04.07,5.58-1.34,6.92-4.12,4.57,1.86,8.12.81,10.58-3.19,1.45-2.36.6-5.1.1-7.21,1.78-1.72,2.65-3.78,2.82-6.33.3-4.43-2.63-8.18-7.4-8.21Z"/></g></svg>