<?xml version="1.0" encoding="UTF-8"?><svg id="Layer_2" xmlns="http://www.w3.org/2000/svg" viewBox="0 0 36 36"><defs><style>.cls-1{fill:#181818;}</style></defs><g id="Layer_1-2"><path class="cls-1" d="M34.38,19.42c1.05-1.19,1.58-2.54,1.62-4.13.09-3.17-2.03-5.73-5.37-6.25.38-2.04-.22-3.86-1.68-5.07-1.44-1.2-3.49-1.41-5.39-.84-.62-.85-1.44-1.79-2.27-2.02-1.02-.29-2.02.23-2.98.85C16.49.02,13.96-.48,11.46.46c-1.91.73-3.33,2.65-3.85,4.98-1.28-.13-2.65.1-3.2.94-.62.96-.67,2.08-.42,3.33-2.1.63-3.41,2.35-3.85,4.22-.49,2.06.22,4.1,2.24,5.5C-.5,22.72.06,27.82,3.87,30.24c1.62,1.03,3.48,1.14,5.22.9.38,1.88,1.73,3.3,3.16,3.9,2.04.86,3.94.19,5.58-.69,1.61,1.32,3.37,2.08,5.58,1.39,1.47-.46,2.89-1.61,3.49-3.43l2.06.23c2.41.26,4.28-1.61,5.18-3.07,1.17-1.98.86-3.98.19-6,1.04-1.22,1.06-2.84.05-4.03ZM33.05,29.66c-1.62,1.99-4.27,2.77-6.81,1.45-.18,2.2-1.69,3.49-3.43,4.02-1.83.55-3.71-.37-4.93-2.16-1.64,2-4,2.3-5.99.96-1.31-.89-1.99-2.09-1.94-3.72l-2.34.26c-2.7.3-4.92-1.85-5.77-3.83-1.13-2.62-.48-5.32,2.02-7.32-2.31-.99-3.41-2.91-2.95-5.2.42-2.08,2.08-3.57,4.72-3.79-1.04-1.1-1.25-2.19-.69-3.14.66-1.13,1.92-1.33,3.52-.62-.25-2.21.72-3.8,2.41-4.9,2.73-1.77,5.4-1.17,7.33,1.56.83-.94,1.83-1.56,2.9-1.35,1.01.2,1.62,1.29,1.87,2.47,1.31-.42,2.65-1.01,4.12-.5,2.22.78,3.43,3.29,2.61,5.84,3.57.39,5.83,2.78,5.64,6.04-.07,1.24-1.25,2.53-2.35,3.63.77.57,1.44,1.24,1.47,1.76.06.91-.49,1.56-1.59,2,1.6,1.98,1.77,4.59.17,6.56Z"/><path class="cls-1" d="M18.12,16.4l-.51,2.04-2,.53,2.04.43.31,1.88.42-.31.21-1.72c1.03-.05,1.38-.07,1.96-.36l-1.99-.46-.45-2.02Z"/></g></svg>