<?xml version="1.0" encoding="UTF-8"?><svg id="Layer_2" xmlns="http://www.w3.org/2000/svg" viewBox="0 0 36 36"><defs><style>.cls-1{fill:#0d0d0d;}</style></defs><g id="Layer_1-2"><path class="cls-1" d="M35,11.72c-.65-.82-2.19-1.31-3.3-1.67.1-1.32.22-2.93-.99-3.94-.81-.68-2.31-.99-3.51-1.18-.43-1.53-1.2-2.7-2.66-3.2-1.56-.54-2.91-.52-4.39.41-1.51-1.75-3.63-2.55-6.11-1.92-1.82.46-3.36,2.24-3.93,4.24-1.76-.45-3.57-.23-4.91.97-1.77,1.57-2.38,3.7-1.35,5.77-2.24.38-3.35,1.96-3.74,3.58-.42,1.73.44,3.43,2.05,4.4-1.72,1.16-2.46,2.87-2.02,4.63.4,1.61,1.91,2.79,3.58,3.38-.57,1.88-.25,3.76,1.21,5.02,1.48,1.28,3.55,1.41,5.62.86.71,1.33,1.97,2.52,3.55,2.76,1.62.24,3.07-.29,4.32-1.34,1.44,1.4,3.4,1.9,5.38,1.26,1.61-.52,2.72-1.95,3.03-3.78l2.84-.02c2.7-.86,4.12-3.33,3.15-5.85,1.59-.81,2.64-1.94,2.85-3.34.25-1.63-.19-2.93-1.26-4.29,1.73-1.86,2.22-4.67.59-6.73ZM34.89,22.26c-.17,1.62-1.53,2.59-3.33,3.19,1.06,1.65.97,3.4-.39,4.7-1.25,1.2-3.15,1.52-5.17.54.19,2.11-.7,3.69-2.37,4.24-2.06.69-4,.21-5.11-1.93-1.2,1.6-2.52,2.34-4.21,2-1.61-.33-2.72-1.43-3.08-3.22-1.67.72-3.2,1.37-4.84.35-.98-.61-1.89-1.5-2.17-2.52-.29-1.05.31-2.09.83-3.25-2.24-.11-3.82-1.5-4.06-3.21-.24-1.7,1.11-3.15,3.08-4.04-1.33-.71-2.44-1.32-2.8-2.04-.57-1.13-.39-2.3.15-3.29.74-1.38,2.07-1.92,3.95-2.05-1.41-1.66-1.5-3.07-.63-4.59.75-1.29,2.48-2.38,4.38-2.02l1.72.32c.02-1.92.6-2.84,1.96-3.9,1.1-.86,2.48-1.15,4.17-.8,1.17.24,2.25,1.21,2.84,2.73,1.22-1.37,2.85-1.78,4.42-1.14,1.45.59,2.31,1.8,1.99,3.73,1.72-.39,3.09-.35,4.03.67,1.06,1.15,1.06,2.62-.03,4.06,1.59.2,2.79.29,3.67.96,1.02.77,1.45,2.05,1.31,3.24-.19,1.61-1.04,2.61-2.72,3.36,1.91.94,2.59,2.29,2.41,3.92Z"/><polygon class="cls-1" points="18.66 18.98 18.3 16.92 17.8 18.92 15.6 19.33 17.81 19.78 18.29 21.64 18.7 19.73 20.45 19.53 20.43 19.11 18.66 18.98"/></g></svg>