<?xml version="1.0" encoding="UTF-8"?><svg id="Layer_2" xmlns="http://www.w3.org/2000/svg" viewBox="0 0 36 36"><defs><style>.cls-1{fill:#060606;}</style></defs><g id="Layer_1-2"><path class="cls-1" d="M35.17,12.51c-1.15-2.51-3.68-3.8-6.63-4,.11-1.82-.64-3.58-1.93-4.56-1.46-1.1-3.26-1.4-5.14-.87C20.06.65,17.19-.43,14.34.16c-2.74.57-4.91,2.74-5.11,5.6-2.76-.1-4.98,1.4-6.17,3.63-1.18,2.2-1.12,4.62.51,6.63C1.11,17.2.18,19.51.02,22c-.19,2.91,1.24,5.45,4.28,6.36-.5,2.75,1.09,5.07,3.34,6.18,2.43,1.19,5.28.71,7.41-.99,1.51,1.84,3.86,2.76,6.27,2.36,2.1-.35,4.06-1.67,4.72-3.85,2.06.46,4.2.23,5.67-1.13,2.39-2.2,2.63-5.49,1.3-8.39,3.08-2.51,3.74-6.57,2.15-10.03ZM30.69,30.7c-1.58,1.08-3.29,1.35-5.08.31-.36,1.85-1.33,3.07-3.15,3.81-2.66,1.08-5.72.02-7.23-2.35-1.33,1.23-2.86,1.97-4.63,1.99-1.82.02-3.48-.83-4.67-2.29-1.02-1.25-1.15-2.79-.65-4.39C1.51,27.13-.08,23.6.9,20.34c.56-1.86,1.63-3.24,3.87-3.99-1.8-2.2-2.16-4.47-.96-6.81,1.09-2.12,3.46-3.56,6.07-2.92-.18-2.97,2.49-5.82,5.43-6.01,2.67-.17,4.84.99,5.66,3.51,1.63-.95,3.13-.86,4.56-.03,1.87,1.09,2.59,3.05,2.39,5.28,2.62-.43,4.76.65,6.13,2.64,2.28,3.33,1.4,7.7-1.98,10.26,1.8,2.89,1.4,6.55-1.36,8.44Z"/><path class="cls-1" d="M17.84,18.19l-.5-2.17-.39,2.08-2.04.44c.83.32,1.52.37,2.09.4l.36,1.77.47-1.79,1.78-.2-.02-.43-1.75-.1Z"/></g></svg>