<?xml version="1.0" encoding="UTF-8"?><svg id="Layer_2" xmlns="http://www.w3.org/2000/svg" viewBox="0 0 36 36"><defs><style>.cls-1{fill:#0d0d0d;}</style></defs><g id="Layer_1-2"><path class="cls-1" d="M35,11.72c-.65-.82-2.19-1.31-3.3-1.67.1-1.32.22-2.93-.99-3.94-.81-.68-2.31-.99-3.51-1.18-.43-1.53-1.2-2.7-2.66-3.2-1.56-.54-2.91-.52-4.39.41-1.51-1.75-3.63-2.55-6.11-1.92-1.82.46-3.36,2.24-3.93,4.24-1.76-.45-3.57-.23-4.91.97-1.77,1.57-2.38,3.7-1.35,5.77-2.24.38-3.35,1.96-3.74,3.58-.42,1.73.44,3.43,2.05,4.4-1.72,1.16-2.46,2.87-2.02,4.63.4,1.61,1.91,2.79,3.58,3.38-.57,1.88-.25,3.76,1.21,5.02,1.48,1.28,3.55,1.41,5.62.86.71,1.33,1.97,2.52,3.55,2.76,1.62.24,3.07-.29,4.32-1.34,1.44,1.4,3.4,1.9,5.38,1.26,1.61-.52,2.72-1.95,3.03-3.78l2.84-.02c2.7-.86,4.12-3.33,3.15-5.85,1.59-.81,2.64-1.94,2.85-3.34.25-1.63-.19-2.93-1.26-4.29,1.73-1.86,2.22-4.67.59-6.73Z"/></g></svg>