<?xml version="1.0" encoding="UTF-8"?><svg id="Layer_2" xmlns="http://www.w3.org/2000/svg" viewBox="0 0 36 36"><defs><style>.cls-1{fill:#121212;}</style></defs><g id="Layer_1-2"><path class="cls-1" d="M32.64,21.13c-.57-1.65,4.75-3.77,3.01-8.38-.56-1.48-2.23-2.51-3.79-2.9-3.51-.88.16-4.96-3.83-7.32-4.41-2.61-6.37,2.75-9.47-.6-2.08-2.25-5.56-2.61-7.91-.64-1.37,1.15-1.86,2.71-2.42,4.35-.64,1.85-5.1.12-6.9,4.15-1.97,4.4,3.36,6.17.31,9.6-1.75,1.97-2.24,5.2-.84,7.5,1.26,2.07,3.8,2.86,6.22,2.75.98-.05,2,.34,2.43,1.16l1.48,2.83c1.01,1.93,3.63,2.59,5.8,2.32,2-.24,3.83-1.38,4.83-3.25.89-1.67,2.78-2.33,4.73-1.71,2.14.68,4.25.1,5.71-1.14,1.47-1.25,2.54-3.16,1.86-5.14l-1.24-3.58ZM33.01,27.53c-.49,1.15-1.7,2.35-3.39,2.82-3.54.97-6.12-2.1-8.86,2.37-1.14,1.86-3.56,2.85-5.55,2.57-2.41-.35-4.1-1.86-4.76-4.13-.44-1.5-2.05-2.32-3.69-2.22-2.82.17-5.44-1.36-6.05-4.03-.43-1.88.28-3.82,1.53-5.27,1.34-1.56,1.37-3.41.18-5.05-1.03-1.42-1.27-3.17-.43-4.76.71-1.33,2.35-2.5,4.18-2.52,1.78-.01,2.7-1.17,3.02-2.69.37-1.78,1.81-3.33,3.38-3.81,1.79-.54,4.15-.23,5.27,1.22,1.31,1.71,3.26,2.17,5.21,1,1.42-.86,3.19-.94,4.54-.1,3.8,2.36-.06,6.45,4.26,7.45,1.41.33,2.73,1.27,3.24,2.35.61,1.29.63,2.93-.34,4.06l-2.09,2.44c-2.11,2.48,1.95,4.51.35,8.3Z"/><path class="cls-1" d="M17.38,16.31l-.36,1.87-1.94.44,1.88.37.51,1.9.52-1.92c.75-.16,1.16-.26,1.59-.42l-1.71-.32c-.11-.87-.15-1.23-.49-1.92Z"/></g></svg>