<?xml version="1.0" encoding="UTF-8"?><svg id="Layer_2" xmlns="http://www.w3.org/2000/svg" viewBox="0 0 36 36"><defs><style>.cls-1{fill:#060606;}</style></defs><g id="Layer_1-2"><path class="cls-1" d="M35.17,12.51c-1.15-2.51-3.68-3.8-6.63-4,.11-1.82-.64-3.58-1.93-4.56-1.46-1.1-3.26-1.4-5.14-.87C20.06.65,17.19-.43,14.34.16c-2.74.57-4.91,2.74-5.11,5.6-2.76-.1-4.98,1.4-6.17,3.63-1.18,2.2-1.12,4.62.51,6.63C1.11,17.2.18,19.51.02,22c-.19,2.91,1.24,5.45,4.28,6.36-.5,2.75,1.09,5.07,3.34,6.18,2.43,1.19,5.28.71,7.41-.99,1.51,1.84,3.86,2.76,6.27,2.36,2.1-.35,4.06-1.67,4.72-3.85,2.06.46,4.2.23,5.67-1.13,2.39-2.2,2.63-5.49,1.3-8.39,3.08-2.51,3.74-6.57,2.15-10.03Z"/></g></svg>