<?xml version="1.0" encoding="UTF-8"?><svg id="Layer_2" xmlns="http://www.w3.org/2000/svg" viewBox="0 0 36 36"><defs><style>.cls-1{fill:#1c1c1c;}</style></defs><g id="Layer_1-2"><path class="cls-1" d="M33.83,12.76c-.95-.73-1.64-1.35-1.43-2.74.42-2.83-1.69-5.44-4.73-5.65-1.54-.1-1.85-.64-2.51-1.81-1.81-3.21-6.37-3.25-9.09-.98-.94.63-2.35-.09-3.4-.24C7.83.61,3.23,4.65,3.79,9.31c.22,1.86.19,3.09-1.36,4.3-3.11,2.43-3.51,8.3.4,10.74,1.16.72,2.04,1.91,1.93,3.33-.26,3.4,1.76,6.08,5.06,7.05,2.05.6,3.95.55,5.96-.33,2.51-1.1,4.08,2.73,8.51,1.26,3.26-1.09,3.08-4.21,4.76-4.48,3.07-.49,5.09-2.97,4.75-5.98l-.33-2.97c3.07-2.48,3.53-7.02.36-9.47Z"/></g></svg>