<?xml version="1.0" encoding="UTF-8"?><svg id="Layer_2" xmlns="http://www.w3.org/2000/svg" viewBox="0 0 36 36"><g id="Layer_1-2"><path d="M33.23,8.42C29.77,2.54,23.28-.67,16.27.12c-3.78.42-6.71,1.96-9.11,5.02C11.61.95,18.42-.07,24.48,2.12c7.8,2.82,11.99,11.97,9.93,20.36-2.02,8.25-9.55,13.53-18.63,12.35-3.73-.48-7.61-2.42-10.33-5.01,5,6.82,15.6,8.27,23,3.01,8.14-5.79,9.65-16.14,4.79-24.4Z"/><path d="M7.16,5.14C2,8.44-.62,14.78.12,21.09c.42,3.6,2.2,6.39,5.33,8.72C-1.24,23.43.01,11.87,7.16,5.14Z"/><path d="M19.18,24.87c2.29,2.05,4.91,1.69,6.39-.13,1.35-1.66.59-3.9-.76-5.46,2.42-1.53,3.25-3.75,1.67-5.89-1.22-1.66-3.37-2.23-5.32-.55-.2-2.06-.89-3.62-2.48-4.29-1.24-.52-3.99.06-4.59,1.38-.44.98-.47,2.85-.44,4.07-1.99-.22-4.05-.04-5.08,1.1-.8.89-1.33,3.09-.46,4.15.72.88,2.97,1.75,4,2.07-.44,1.21-.92,3.55-.21,4.61.62.93,2.91,1.97,4.1,1.56.97-.33,2.13-1.52,3.19-2.63ZM12.46,24.84c-.46-.91.36-2.83,1.21-3.59l.96-.87c.18-.16-.04-1.08-.27-1l-1.46.48c-.96.32-3.2-.1-3.72-.92-.59-.93-.33-3.13.62-3.7.85-.52,3.06-.5,3.85.11l.99.77c.22.17,1.03.07,1.03-.21,0-1.04-2.69-5.86,1.06-6.61.87-.17,2.53.45,2.82,1.15.29.7.35,2.61.13,3.34l-.35,1.2c-.06.21.6.55.74.38l.91-1.04c.65-.75,2.59-1.7,3.56-1.42,1.06.31,2,2.32,1.78,3.25-.32,1.32-1.7,2.2-3.62,2.26-1.33-.51-1.22,1.18-.19,1.19,1.55.54,2.96,1.75,3,2.75.06,1.29-1.3,2.69-2.33,2.89-1.2.23-3.24-.95-3.56-1.98l-.49-1.57c-.07-.21-.96-.38-.97-.16l-.14,1.86c-.07.91-1.07,2.56-2.18,3.11-.94.46-2.74-.45-3.37-1.68Z"/></g></svg>