<?xml version="1.0" encoding="UTF-8"?><svg id="Layer_2" xmlns="http://www.w3.org/2000/svg" viewBox="0 0 36 36"><defs><style>.cls-1{fill:none;}</style></defs><g id="Layer_1-2"><path class="cls-1" d="M33.89,11.74c-1.22-1.38-3.88-2.34-5.66-1.59-2.88,1.21-4.61,3.55-7.32,5.99.91-4.44,2.58-7.66,1.54-11.7-.59-2.29-3.03-3.32-5.19-3.14-1.52.13-3.78,1.91-4.33,4.06-.89,3.47,1.19,6.47,1.99,10.46-3.72-3.81-7.18-7.88-11.82-4.66-2.31,1.6-2.29,6.5-.38,8.4,2.91,2.88,6.25,1.34,10.59,1.47-3.1,2.29-6.23,3-7.63,6.55-.86,2.19.4,5.49,1.97,6.27,2.01,1,5.05,1.08,6.75-.4,2.45-2.13,2.5-5.45,3.8-8.69,1.11,3.7,1.32,6.72,3.46,8.39,2.58,2.01,5.2,1.84,7.42-.12,1.42-1.25,2.13-4.49.82-6.78-1.42-2.49-4.35-3.4-7.02-5.24,4.72-.07,9.06.89,11.27-3.22,1.02-1.89.79-4.89-.25-6.06ZM21.08,22.01c-.99,1.4-3.3,2.22-4.58,1.36-1.66-1.12-2.59-3.48-1.44-5.14l1.28,3.73c.29.85,2.9.75,3.49.08.59-.67.79-2.68.54-3.58-.24-.87-2.09-1.14-3.96-1.44,1.07-1.12,3.24-1.04,4.11,0,1.4,1.69,1.5,3.66.57,4.98Z"/><path d="M35.61,12.45c-.66-1.98-3.34-3.69-5.11-3.73-2.26-.05-4.27.99-6.78,2.29C25.07,6.19,23.43.68,18.17.02c-2.08-.26-4.95,2.1-5.8,3.72-1.11,2.11-.94,4.56-.43,7.29-2.95-2.32-6.11-3-8.95-1.11C.36,11.66-.8,15.37.6,18.59c1.16,2.66,4.29,3.86,7.51,4.14-2.69,2.34-4.19,4.4-3.97,7.22.2,2.55,2.05,4.79,4.88,5.74,4.11,1.37,8.16-2.05,8.88-6.12,1.33,3.03,3.07,5.1,5.74,5.9,2.06.62,5.26-.01,6.87-2.25,2.74-3.82.83-8.49-2.51-10.49,2.67-.83,4.95-1.73,6.24-3.19,1.64-1.86,2.23-4.53,1.38-7.09ZM22.87,21.01c2.68,1.84,5.6,2.75,7.02,5.24,1.31,2.29.59,5.53-.82,6.78-2.22,1.96-4.84,2.13-7.42.12-2.14-1.67-2.34-4.69-3.46-8.39-1.3,3.24-1.35,6.56-3.8,8.69-1.7,1.48-4.74,1.4-6.75.4-1.57-.78-2.84-4.08-1.97-6.27,1.4-3.55,4.53-4.26,7.63-6.55-4.34-.13-7.68,1.41-10.59-1.47-1.91-1.9-1.93-6.8.38-8.4,4.65-3.22,8.11.85,11.82,4.66-.79-3.98-2.87-6.99-1.99-10.46.55-2.15,2.81-3.93,4.33-4.06,2.16-.18,4.61.85,5.19,3.14,1.04,4.03-.62,7.26-1.54,11.7,2.71-2.44,4.44-4.78,7.32-5.99,1.78-.75,4.44.22,5.66,1.59,1.04,1.17,1.27,4.17.25,6.06-2.21,4.1-6.55,3.15-11.27,3.22Z"/><path d="M16.4,17.03c1.87.3,3.72.57,3.96,1.44.25.9.06,2.91-.54,3.58-.59.67-3.2.78-3.49-.08l-1.28-3.73c-1.15,1.66-.22,4.03,1.44,5.14,1.28.86,3.59.04,4.58-1.36.93-1.32.84-3.29-.57-4.98-.87-1.04-3.03-1.13-4.11,0Z"/></g></svg>