<?xml version="1.0" encoding="UTF-8"?><svg id="Layer_2" xmlns="http://www.w3.org/2000/svg" viewBox="0 0 36 36"><g id="Layer_1-2"><path d="M36,17.41c-.97-2.99-5.81-4.08-8.69-3.4,2.2-2.85,4.42-6.5,3.38-8.58-1.1-2.21-6.34-.4-9.59,3.87-.12-3.44-1.17-8.42-4.43-9.3-2.95.74-3.39,4.78-3.52,7.91-3.29-2.39-7.48-4.29-8.33-1.96-.87,2.36,1.25,5.9,3.71,8.48C4.17,14.42-.25,16.79.01,18.79c.32,2.48,4.92,3.28,8.68,3.68-2.36,2.29-4.58,6.14-2.88,8.9,2.85,1.32,6.23-1.66,8.5-3.88.36,3.23,1.21,7.49,4.39,8.5,2.67-2.14,2.94-5.93,3.19-8.83,2.74,2.54,6.4,4.87,9.54,3.2.83-3.2-1.97-6.67-4.19-8.71,3.11-.29,7.81-.87,8.76-4.24Z"/></g></svg>