<?xml version="1.0" encoding="UTF-8"?><svg id="Layer_2" xmlns="http://www.w3.org/2000/svg" viewBox="0 0 36 36"><g id="Layer_1-2"><path d="M33.14,8.81c-2.16-1.61-5.07-1.31-7.94-.27.52-4.16-1.87-7.84-5.98-8.47-3.81-.58-7.55,2.29-8.17,7.34-4.2-2.44-8.79-.88-10.44,3.54-1.62,4.33-.04,8.98,5.2,10.28-2.49,2.28-3.75,5.16-2.96,8.39.69,2.82,3.42,4.93,6.06,5.44,3.35.65,6-.75,7.71-4.23,1.61,2.87,3.54,4.69,5.81,5.06,2.86.47,5.38-.71,7.46-3.08,2.68-3.06,2.3-7.17-.22-10.35,3.33-1.19,5.34-3.05,6.22-6.7.58-2.43-1.03-5.68-2.74-6.96ZM13.29,4.44c1.97-3.64,6.43-3.93,9.06-1.42,2.38,2.27,2.2,6.93-.79,9.97l-6.53-.05c-2.13-1.31-3.08-6.01-1.74-8.5ZM3.14,18.46c-1.19-.96-2.2-3.73-1.84-5.35.68-3.04,2.34-5,4.61-5.41,2.81-.5,5.24,1.28,6.46,3.86l1.05,2.2c.22.46-.8,1.6-1.01,2.14l-1.18,2.99c-.46,1.17-5.06,1.99-8.09-.45ZM16.19,28.19c-.67,3.58-2.83,5.43-5.84,5.56-3.12.13-5.86-1.85-6.34-5.36-.4-2.96,1.52-5.95,4.79-7.16,1.97-.73,3.24.3,4.88,1.74l2.47,2.17c.53.46.18,2.28.04,3.05ZM12.98,19.83c-.47-2.35.82-4.78,3.14-5.58,2.96-1.02,5.74.55,6.24,3.48.42,2.43-1.19,5.47-4.2,5.75-2.53.23-4.73-1.42-5.18-3.64ZM30.11,26.23c.81,4.41-1.14,7.03-5.54,8.59-2.22.16-4.99-1.15-5.96-2.93-1.02-1.86-1.34-5.67.04-6.67l4.51-3.27c2.4-1.74,6.75,2.07,6.94,4.28ZM33.77,18.1c-1.42,3.01-8.03,4.35-9.56.82l-1.98-4.56,1.86-2.69c2.06-2.97,5.05-3.75,7.86-2.09,2.82,1.66,3.49,4.99,1.82,8.53Z"/></g></svg>