<?xml version="1.0" encoding="UTF-8"?><svg id="Layer_2" xmlns="http://www.w3.org/2000/svg" viewBox="0 0 36 36"><g id="Layer_1-2"><path d="M33.14,8.81c-2.16-1.61-5.07-1.31-7.94-.27.52-4.16-1.87-7.84-5.98-8.47-3.81-.58-7.55,2.29-8.17,7.34-4.2-2.44-8.79-.88-10.44,3.54-1.62,4.33-.04,8.98,5.2,10.28-2.49,2.28-3.75,5.16-2.96,8.39.69,2.82,3.42,4.93,6.06,5.44,3.35.65,6-.75,7.71-4.23,1.61,2.87,3.54,4.69,5.81,5.06,2.86.47,5.38-.71,7.46-3.08,2.68-3.06,2.3-7.17-.22-10.35,3.33-1.19,5.34-3.05,6.22-6.7.58-2.43-1.03-5.68-2.74-6.96Z"/></g></svg>