<?xml version="1.0" encoding="UTF-8"?><svg id="Layer_2" xmlns="http://www.w3.org/2000/svg" viewBox="0 0 36 36"><g id="Layer_1-2"><path d="M36,17.41c-.97-2.99-5.81-4.08-8.69-3.4,2.2-2.85,4.42-6.5,3.38-8.58-1.1-2.21-6.34-.4-9.59,3.87-.12-3.44-1.17-8.42-4.43-9.3-2.95.74-3.39,4.78-3.52,7.91-3.29-2.39-7.48-4.29-8.33-1.96-.87,2.36,1.25,5.9,3.71,8.48C4.17,14.42-.25,16.79.01,18.79c.32,2.48,4.92,3.28,8.68,3.68-2.36,2.29-4.58,6.14-2.88,8.9,2.85,1.32,6.23-1.66,8.5-3.88.36,3.23,1.21,7.49,4.39,8.5,2.67-2.14,2.94-5.93,3.19-8.83,2.74,2.54,6.4,4.87,9.54,3.2.83-3.2-1.97-6.67-4.19-8.71,3.11-.29,7.81-.87,8.76-4.24ZM29.95,5.63c.04,4.72-3.52,8.57-7.82,9.91l-1.83-2.24c1.23-4.25,4.69-7.76,9.65-7.67ZM16.5.63c3.62,2.48,4.29,8.64,2.71,12.04-.25.54-2.04,1-2.48.82-2.3-.95-3.69-9.27-.23-12.86ZM5.81,5.88c4.45-.13,8.86,4.19,8.84,8.86-4.6,1.07-9.48-4-8.84-8.86ZM.81,18.87c2.55-3.77,7.95-4.12,12.01-2.28.11.7.12,2.23.02,2.9-3.57,2.12-8.48,2.55-12.03-.62ZM6.42,30.7c-1.1-6.15,6.4-10.31,6.93-9.85l1.76,1.57c-.72,4.51-4.19,8.12-8.69,8.28ZM14.65,20.22c-1.03-2.05-.33-4.69,2-5.53,2.07-.75,4.24.24,5.09,2.32.65,1.6-.38,4.02-1.93,4.72-1.94.88-4.3.18-5.15-1.51ZM18.42,35.01c-3.08-3.15-3.54-7.41-2.18-11.59l3.2.03c1.81,3.92,1.6,8.53-1.02,11.57ZM30.77,30.06c-4.86.1-8.31-2.81-10.39-6.92l2.32-2.48c4.38,1.12,7.48,4.4,8.06,9.4ZM22.96,19.17l-.05-2.34c3.53-2.33,8.38-3.01,12.29.46-3.05,3.93-8.42,4.06-12.24,1.88Z"/></g></svg>