<?xml version="1.0" encoding="UTF-8"?><svg id="Layer_2" xmlns="http://www.w3.org/2000/svg" viewBox="0 0 38.08 38.42"><defs><style>.cls-1{fill:#020202;stroke:#000;stroke-miterlimit:10;}</style></defs><g id="Layer_1-2"><path class="cls-1" d="M26.52,23.53c4.01-.45,7.33-1.91,10.5-4.25-3.47-1.22-6.59-1.73-10.27-1.66,2.61-3.13,4.23-6.62,5.05-10.51-4.12,1.86-7.48,4.22-10.26,7.56l-.21-2.87c-.26-3.59-1.16-6.91-2.37-10.51-1.95,3.82-3.26,8.17-3.56,12.26-2.22-2.69-4.99-5.3-7.86-7.42.67,4.31,1.92,8.5,4.43,11.74-3.85-.25-7.39.82-10.96,2.74,3.14,1.83,6.63,3.09,10.2,3.23-2.62,2.68-3.76,6.12-4.64,9.7,3.97-1.39,6.9-3.51,9.58-6.49.52,2,.67,3.49,1.29,4.93.77,1.79,1.55,3.33,2.6,5.3,1.45-3.14,1.67-6.15,1.95-9.8,3.03,2.7,6.31,4.43,10.06,5.4-1.08-3.78-2.84-6.74-5.55-9.36ZM35.68,19.5c-2.96,2.01-6.17,3.46-9.87,3.31-1.21-.05-2.67-.69-3.77-1.21l-.64-.3c-.18-.09.18-.87.37-.94,1-.36,2.8-1.45,3.92-1.78,3.32-.98,6.58-.09,9.98.92ZM22.26,14.72c2.34-2.77,5.1-4.89,8.65-6.4-.71,2.79-1.82,5.2-3.29,7.41-1.79,2.69-6.02,4.25-6.65,3.44-.4-.51-.48-1.14-.2-1.75.44-.98.85-1.93,1.5-2.7ZM19.41,22.72c-.9.31-2.06-.11-2.57-1.07-.53-1-.12-2.47,1.17-2.95,1.24-.46,2.38.22,2.74,1.24.39,1.11-.12,2.35-1.34,2.77ZM18.8,3.21c1.27,3.56,1.79,6.72,2.14,10.2,0,1.64-.46,3.37-1.22,4.61l-2.29.12-1.38-3.37c-.2-3.85,1.09-7.92,2.74-11.56ZM10.95,15.39c-1.2-2.33-2.06-4.78-2.45-7.71,2.79,2.2,5.35,4.27,6.95,7.34.46.88.83,2.48,1.22,3.51.09.24-.16,1.16-.38,1.09l-.96-.33c-2.01-.69-3.32-2.02-4.38-3.9ZM2.47,20.62c3.3-1.76,6.69-2.65,10.21-1.97l3.32,1.9c1,.57-2.5,2.27-4.13,2.5-3.31.46-6.52-.74-9.4-2.43ZM7.65,32.42c.54-3.62,2.13-6.57,4.58-8.75l3.47-1.23c.31-.11.8-.16,1.01,0,.26.2.38.98.31,1.32-1.12,4.13-5.18,7.13-9.36,8.66ZM19.97,35.59c-2.49-3.95-4.08-8.54-2.09-12.32l1.79.14c2.2,3.78,2.01,7.74.3,12.18ZM31.18,31.99c-2.78-.8-4.97-1.98-7.13-3.46-1.53-1.2-2.56-2.6-3.3-4.41l-.37-1.14c-.1-.31.77-.81,1.1-.71l4.25,1.35c2.7,2.15,4.33,4.99,5.45,8.35Z"/></g></svg>