<?xml version="1.0" encoding="UTF-8"?><svg id="Layer_2" xmlns="http://www.w3.org/2000/svg" viewBox="0 0 37.6 37.34"><defs><style>.cls-1{fill:#020202;stroke:#000;stroke-miterlimit:10;}</style></defs><g id="Layer_1-2"><path class="cls-1" d="M36.83,21.2c-1.77-1.61-3.38-3.02-5.55-4.12,1.43-1.97,2.54-4.18,3.54-6.71-2.47,0-4.63.18-6.67.45.38-2.84.34-5.2.04-7.91-2.36,1.53-4.34,3.08-6.19,4.75-.86-2.6-3.21-7.48-3.59-7.14-.94.84-2.96,5.03-3.65,7.51-2.3-1.78-4.76-3.04-7.65-3.84.43,2.8.86,5.27,1.46,7.83-2.44.2-4.58.47-7.03,1.08,1.46,2.1,2.87,3.88,4.62,5.69-1.9,1.44-3.55,3.14-5.32,5.17,2.29.97,4.38,1.46,6.89,1.72-.68,1.97-1.16,3.77-1.5,5.99,2.31-.41,4.17-.94,6.31-1.78.38,2.43.87,4.47,1.79,6.62,1.64-1.5,2.9-2.77,4.26-4.44,1.13,1.46,2.43,2.92,3.94,4.36,1.15-2.58,1.64-4.63,1.97-6.67,2.12.88,3.82,1.4,5.97,1.95-.22-2.4-.65-4.39-1.25-6.73,2.75-.8,5.24-1.9,7.61-3.78ZM35.74,21.22c-1.52,1.08-2.72,1.91-4.29,2.65l-2.47.47-1.37-1.94,2.96-2.2-1.51-1.52,1.77-1.15c1.97.93,3.45,2.12,4.92,3.69ZM15.96,18.29c-2.33.5-4.2-2.93-3.69-6.38,1.4.04,3.36.59,4.19,1.76-.61,2.21,1.16,4.26-.5,4.62ZM15.98,20.25l-.86.8c-2.51,2.34-4.31,1.42-7.29-.88,1.33-1.45,2.88-2.98,4.92-2.73.75.64,1.88,1.57,2.94,1.69.16.12.48.95.29,1.13ZM18.29,17.29c1.06-.26,2.19.59,2.45,1.37.45,1.38-.3,2.52-1.3,2.79-1.3.35-2.49-.28-2.82-1.45-.32-1.13.35-2.37,1.68-2.7ZM18.64,11.73c1.41.98,2.12,3.44,1.07,4.89l-2.12.08c-1.25-1.42-.37-4.09,1.05-4.97ZM20.4,17.04l.58-2.8c.23-1.11,2.29-1.66,3.6-1.68.44,2.52-.44,5.07-2.87,6.29l-1.32-1.8ZM24.45,17.4c2.11-.3,3.84,1.13,5.13,2.76-2.99,2.49-4.58,3.03-7.44,1.23-.42-.27-.84-.7-.83-1.03.05-1.14,1.77-.94,3.13-2.97ZM33.86,11.06c-1.08,2.98-2.43,5.68-5.21,7.2-1.31-1.01-2.54-1.44-3.92-1.56l.67-3.47c2.16-2.05,5.22-2.52,8.45-2.16ZM22.19,8.33c1.65-1.71,3.36-3,5.47-4.3.24,2.15.28,3.92,0,5.88-.2,1.38-1.51,2.59-3.06,1.88l-3.1.9-.31-.95,1-3.41ZM18.44,1.46c1.33,2.27,2.34,4.12,2.96,6.58.18.71-.65,2.2-.67,2.93l-.06,2.38-2.04-2.81-1.97,2.43-1.15-3.02c-.81-2.12,1.33-5.85,2.93-8.49ZM7.94,5.11c2.66.89,4.88,2.07,6.7,3.71l.77,3.16-3.88-1.04-.15,1.75-2.13-.72c-.69-2.19-1.1-4.27-1.31-6.86ZM2.65,13.5c2.77-.78,4.73-.9,7.21-.78l1.57.84.77,3.07c-1.48.48-2.68,1.09-3.91,2.14-2.33-.19-4.13-2.93-5.64-5.26ZM1.95,23.63c2.34-3,6.14-6.13,5.02-3.33l2.98,2.1-1.85,2.57c-2.03.09-3.99-.45-6.15-1.35ZM7.11,30.76c.35-3.07,1.25-6.23,3.68-8.01,1.85.35,4.08.31,5.25-1.78.24.13.96.59.89.78l-.42,1.07c-.95.74-1.41,1.68-.62,3.13-2.24,2.71-5.16,4.64-8.78,4.8ZM14.56,35.26c-.88-2.21-1.37-4.09-1.21-6.03l2.54-2.18,2.11,2.53c1.18,1.42-1.36,4.29-3.44,5.67ZM16.28,24.19l1.42-2.11c1.15.13,1.42.06,2.58-.22l1.11,2.9c-.35,1.8-.98,2.91-2.46,4.55-1.69-1.07-2.82-2.91-2.65-5.12ZM22.36,35.17c-1.6-1.06-2.88-2.59-3.65-4.6l2.68-3.28,2.46,2.17c-.11,1.81-.53,3.41-1.49,5.71ZM29.71,30.7c-2.68-.21-4.97-1.4-6.96-2.98-1.05-.83-1.18-1.74-.69-3.05l-1.19-3.19,3.59,1.78,2.54-.57c1.89,2.19,2.51,4.7,2.72,8.01Z"/></g></svg>